<?xml version="1.0" encoding="utf-8"?>
<!-- Generator: Adobe Illustrator 16.0.0, SVG Export Plug-In . SVG Version: 6.00 Build 0)  -->
<!DOCTYPE svg PUBLIC "-//W3C//DTD SVG 1.1//EN" "http://www.w3.org/Graphics/SVG/1.1/DTD/svg11.dtd">
<svg version="1.1" id="Layer_1" xmlns="http://www.w3.org/2000/svg" xmlns:xlink="http://www.w3.org/1999/xlink" x="0px" y="0px"
	 width="274px" height="274px" viewBox="0 0 274 274" enable-background="new 0 0 274 274" xml:space="preserve">
<g>
	<path fill="#3A3A41" d="M100.104,144.855c-6.063,1.16-10.154,6.181-15.743,8.521c-5.149,2.155-11.519,4.071-17.149,3.563
		c-2.867-0.255-8.413-3.497-10.976-2.953c-3.136,0.664-3.739,4.869-1.199,6.626c3.577,2.475,14.331,0.954,18.702,0.723
		c6.559-0.347,13.57-3.8,19.04-7.608c2.563-1.783,6.243-3.797,8.056-6.309L100.104,144.855z"/>
	<path fill="#71CEEB" d="M160.536,127.609c-16.138-17.16-20.553-44.136-11.188-65.655c8.862-20.364,20.278-42.241,42.75-49.375
		c7.81-2.48,17.221-4.485,25.003-1.012c9.393,4.191,15.575,15.982,15.898,25.702c0.364,10.947-5.36,22.563-10.4,32.113
		c-3.903,7.393-8.939,13.857-14.792,19.802c-9.001,9.14-16.761,22.804-28.723,28.508L160.536,127.609z"/>
	<path fill="#3A3A41" d="M79.987,46.913c-2.916-8.43-4.603-15.805-12.396-21.4c-3.599-2.585-19.305-5.424-16.748-12.327
		c1.573-4.243,19.741,9.616,21.212,10.791c5.684,4.53,16.265,17.809,13.352,25.265L79.987,46.913z"/>
	<path fill="#3A3A41" d="M41.624,56.938c-4.904-4.745-12.55-12.776-19.007-14.656c-2.393-0.695-7.632-1.811-9.979-0.81
		c-2.338,0.996-4.058,3.97-1.838,6.063c3.367,3.175,10.015-2.577,14.624,0.723c5.048,3.616,9.79,9.782,14.371,14.169L41.624,56.938z
		"/>
	<path fill="#CBEBF8" d="M142.246,116.143c0.005-23.553,15.272-46.231,36.845-55.484c20.406-8.758,43.714-16.868,64.966-6.667
		c7.389,3.547,15.616,8.534,18.903,16.396c3.972,9.489,0.393,22.315-6.031,29.614c-7.234,8.224-19.363,12.76-29.581,16.261
		c-7.909,2.711-16.006,3.971-24.342,4.286c-12.819,0.49-27.833,5.125-40.456,1.082L142.246,116.143z"/>
	<path fill="#FFC619" d="M38.602,58.804c-14.898,14.332-21.828,35.208-11.539,59.263c7.621,17.813,28.728,26.523,51.632,27.522
		c3.816,0.166,7.682,0.118,11.457-0.172c30.496-1.407,56.836-27.749,54.149-58.126c-0.418-3.614-1.332-7.223-2.608-10.724
		c-6.394-17.502-21.375-32.203-41.463-37.461c-3.177-0.444-6.39-0.649-9.606-0.639C71.319,38.521,51.823,46.084,38.602,58.804z"/>
	<g>
		<path fill="#FFFFFF" d="M64.435,80.835c0,0,10.448,1.134,21.075-2.306c6.109-1.977,2.911-27.813-12.44-26.479
			C57.23,53.412,58.218,76.055,64.435,80.835z"/>
		<path fill="#341A14" d="M67.928,80.129c0,0,8.366,0.899,16.866-1.849c4.895-1.586,2.327-22.257-9.96-21.198
			C62.163,58.177,62.953,76.298,67.928,80.129z"/>
		<path fill="#FFFFFF" d="M80.173,63.967c0.143,1.696-1.186,3.204-2.974,3.35c-1.791,0.163-3.367-1.092-3.507-2.789
			c-0.145-1.706,1.183-3.201,2.971-3.357C78.454,61.008,80.028,62.263,80.173,63.967z"/>
	</g>
	<path fill="#FFC619" d="M167.588,103.787c-1.541-0.417-3.088-0.818-4.625-1.189c-2.674-0.391-5.354-0.638-8.026-0.73
		c-8.019-0.276-15.964,0.815-23.397,3.538c-3.467,1.446-6.842,3.13-10.009,5.082c-9.501,5.854-17.122,14.114-19.688,25.547
		c-2.736,12.188-3.583,24.178-1.482,35.935c6.494-29.285,33.137-53.609,59.801-65.273
		C162.577,105.621,165.063,104.647,167.588,103.787z"/>
	<path fill="#3A3A41" d="M167.588,103.787c-2.525,0.861-5.011,1.834-7.427,2.909c-26.664,11.664-53.307,35.988-59.801,65.273
		c1.051,5.88,2.824,11.702,5.493,17.459c0.708,1.527,1.487,3.071,2.296,4.617c19.126-36.391,54.374-66.118,95.285-71.96
		C193.601,112.584,180.61,107.305,167.588,103.787z"/>
	<path fill="#FFC619" d="M158.411,240.756c16.521,5.695,35.047,6.308,49.824-0.615c3.243-1.521,6.304-3.405,9.119-5.691
		c8.527-8.032,13.308-17.411,15.316-27.311c0.67-3.306,1.03-6.67,1.12-10.107c-0.197-3.715-0.487-7.48-0.894-11.255
		c-0.15-1.365-0.335-2.733-0.517-4.102C202.438,190.664,176.76,216.963,158.411,240.756z"/>
	<path fill="#3A3A41" d="M224.541,150.447c-39.297,9.003-71.259,39.956-92.857,74.684c0.913,0.831,1.826,1.669,2.754,2.438
		c6.809,5.634,15.106,10.13,23.973,13.188c18.349-23.793,44.026-50.092,73.97-59.081c-0.321-2.401-0.672-4.796-1.111-7.171
		C230.775,165.861,228.408,157.861,224.541,150.447z"/>
	<path fill="#FFC619" d="M224.541,150.447c-2.9-5.559-6.643-10.787-11.086-15.702c-1.534-2.321-3.15-4.617-4.823-6.868
		c-1.604-2.096-3.351-4.01-5.197-5.792c-40.911,5.842-76.159,35.569-95.285,71.96c5.874,11.227,14.281,22.665,23.534,31.086
		C153.282,190.403,185.244,159.45,224.541,150.447z"/>
	<g>
		<path fill="#3A3A41" d="M199.818,234.13c8.993,11.83,18.991,22.202,28.943,32.212c-5.247-10.267-10.378-30.137-16.929-39.52
			L199.818,234.13z"/>
		<path fill="#3A3A41" d="M209.434,225.064c3.985,2.047,5.812,6.425,4.088,9.779c-1.726,3.353-6.351,4.411-10.333,2.36
			c-3.981-2.048-5.81-6.426-4.086-9.779C200.826,224.072,205.454,223.014,209.434,225.064z"/>
	</g>
	<path fill="#3A3A41" d="M40.159,123.889c4.473-0.461,10.888-2.383,11.727-7.919c-0.075,4.647-1.343,9.325-1.171,13.719
		C46.815,130.409,43.007,125.81,40.159,123.889L40.159,123.889z"/>
</g>
</svg>
