<?xml version="1.0" encoding="utf-8"?>
<!-- Generator: Adobe Illustrator 16.0.0, SVG Export Plug-In . SVG Version: 6.00 Build 0)  -->
<!DOCTYPE svg PUBLIC "-//W3C//DTD SVG 1.1//EN" "http://www.w3.org/Graphics/SVG/1.1/DTD/svg11.dtd">
<svg version="1.1" id="Layer_1" xmlns="http://www.w3.org/2000/svg" xmlns:xlink="http://www.w3.org/1999/xlink" x="0px" y="0px"
	 width="274px" height="274px" viewBox="0 0 274 274" enable-background="new 0 0 274 274" xml:space="preserve">
<g>
	<g>
		<g>
			<g>
				<path fill="#A48BC0" d="M143.441,133.015c0,0-31.41-41.944-80.895-51.504c-49.484-9.563-66.619,46.505-44.681,90.603
					c21.938,44.098,83.083,25.558,85.78,23.825c0,0-31.334,21.162-10.835,50.503c20.499,29.34,52.162-10.904,56.732-26.146
					C154.109,205.051,143.441,133.015,143.441,133.015z"/>
			</g>
		</g>
	</g>
	<path fill="#7555A3" d="M122.17,195.867c-4.667,5.139-7.981,12.344-9.516,19.007c-0.934,4.055-2.129,11.188,1.802,14.048
		c6.151,4.47,16.079-0.532,20.615-4.887c6.816-6.544,11.703-14.936,15.082-23.568c1.321-3.376,2.148-6.561,2.762-10.129
		c0.698-4.036,2.787-12.911-3.789-9.223c-4.732,2.655-9.567,6.549-14.928,7.879C128.853,190.321,126.069,191.575,122.17,195.867z"/>
	<path fill="#D4C2DE" d="M57.13,112.939c-1.653-8.204-17.592-9.498-23.561-6.294c-10.514,5.646,4.849,14.021,10.957,14.156
		C49.021,120.9,58.448,119.477,57.13,112.939z"/>
	<path fill="#D4C2DE" d="M51.863,144.638c-1.288-7.508-16.101-8.205-21.764-5.068c-9.972,5.526,4.085,12.767,9.774,12.702
		C44.06,152.224,52.888,150.623,51.863,144.638z"/>
	<path fill="#D4C2DE" d="M58.259,168.206c-3.469-6.782-17.816-3.031-22.285,1.654c-7.87,8.249,7.708,10.967,13.118,9.208
		C53.074,177.773,61.022,173.611,58.259,168.206z"/>
	<g>
		<g>
			<g>
				<path fill="#A48BC0" d="M143.001,128.145c0,0-3.019-52.313,28.651-91.519c31.671-39.205,80.91-7.384,92.561,40.472
					c11.649,47.856-47.049,73.092-50.228,73.505c0,0,37.596-4.016,40.834,31.629c3.24,35.646-46.908,25.285-60.226,16.576
					C181.274,190.098,143.001,128.145,143.001,128.145z"/>
			</g>
		</g>
		<g>
			<path fill="#7555A3" d="M157.285,104.232c4.925-10.3,10.176-20.288,19.039-28.091c4.268-4.058,19.367-12.486,17.068-0.313
				c-1.641,10.3-14.441,19.665-21.991,26.53c-3.282,2.81-21.664,16.542-16.085,3.122L157.285,104.232z"/>
		</g>
		<g>
			<path fill="#7555A3" d="M150.771,133.89c11.153-15.576,24.104-27.767,38.852-40.632c4.676-4.063,21.942-16.931,25.899-4.403
				c4.317,14.223-26.619,29.459-35.612,34.876c-5.035,3.387-23.022,16.931-29.139,11.512V133.89z"/>
		</g>
		<g>
			<path fill="#7555A3" d="M153.372,149.235c16.023-13.888,34.233-25.215,52.445-35.081c4.735-2.558,26.588-13.155,27.315-2.924
				c0.366,6.212-11.653,14.251-15.296,17.175c-8.377,6.211-18.574,11.693-28.043,15.713c-10.927,4.75-24.038,9.5-36.058,5.846
				L153.372,149.235z"/>
		</g>
		<g>
			<path fill="#7555A3" d="M115.972,117.136c-10.584-4.197-21.22-7.935-33.24-7.563c-5.985-0.042-23.277,4.186-13.515,11.579
				c8.025,6.467,24.139,4.521,34.522,4.367c4.398-0.198,27.725-2.779,14.586-8.825L115.972,117.136z"/>
		</g>
		<g>
			<path fill="#7555A3" d="M132.425,136.709c-17.337-3.557-33.909-3.673-52.169-3.117c-5.781,0.187-25.833,2.333-21.086,13.356
				c5.512,12.4,36.722,3.236,46.391,1.244c5.627-0.875,26.601-3.016,27.682-10.561L132.425,136.709z"/>
		</g>
		<g>
			<path fill="#7555A3" d="M145.483,145.042c-19.029,1.239-38.164,5.451-56.479,10.586c-4.758,1.34-26.042,8.285-20.832,15.188
				c3.218,4.145,16.161,1.718,20.356,1.291c9.362-1.308,19.594-4.211,28.497-7.582c10.336-3.818,22.206-8.998,28.61-18.796
				L145.483,145.042z"/>
		</g>
		<path fill="#7555A3" d="M207.577,162.659c7.049,1.62,13.956,5.777,18.935,10.514c3.026,2.882,7.942,8.213,5.848,12.921
			c-3.28,7.364-15.107,8.926-21.616,7.891c-9.78-1.554-18.771-5.796-26.499-11.121c-3.023-2.082-5.489-4.291-7.964-6.948
			c-2.8-3.005-9.469-9.287-1.436-10.004c5.779-0.517,12.319-0.046,17.973-2.048C198.451,161.868,201.688,161.304,207.577,162.659z"
			/>
	</g>
	<g>
		<path fill="#EFC11E" d="M156.236,142.335c-2.732-2.748-5.624-4.86-8.626-5.788l-14.368,14.425
			c3.448,2.554,5.997,5.243,7.933,8.089C148.708,156.634,156.404,151.256,156.236,142.335z"/>
	</g>
	<g>
		<path fill="#FFD771" d="M167.36,157.692c-3.198-5.467-6.961-11.17-11.124-15.357c0.168,8.921-7.528,14.299-15.061,16.726
			c2.854,4.201,4.338,8.756,5.306,13.738C156.778,174.03,165.104,166.296,167.36,157.692z"/>
	</g>
	<g>
		<path fill="#EFC11E" d="M180.456,182.857c-2.193-4.818-4.69-9.458-6.817-13.764c-1.674-3.112-3.813-7.189-6.278-11.401
			c-2.257,8.604-10.582,16.338-20.879,15.106c0.909,4.689,1.361,9.755,2.034,15.286c0.25,2.221,0.475,4.567,0.751,6.955
			C162.424,199.556,173.477,193.063,180.456,182.857z"/>
	</g>
	<g>
		<path fill="#EFC11E" d="M152.459,209.815c1.849,4.729,4.73,8.825,9.469,11.425c12.961,7.388,23.513-1.386,24.023-15.016
			c0.088-1.102,0.1-2.207,0.065-3.313C178.693,211.335,163.986,214.438,152.459,209.815z"/>
	</g>
	<g>
		<path fill="#FFD771" d="M180.456,182.857c-6.979,10.206-18.032,16.698-31.189,12.183c0.579,5.004,1.4,10.188,3.192,14.775
			c11.527,4.622,26.234,1.52,33.558-6.903C185.803,196.144,183.411,189.338,180.456,182.857z"/>
	</g>
	<path fill="#FFD771" d="M159.48,104.61c-10.982-17.368-34.162-11.772-47.75-0.315c-16.092,11.246-18.01,33.786-1.332,45.295
		c14.389,8.792,42.152,8.632,48.834-10.716C164.07,127.628,165.683,115.131,159.48,104.61z"/>
	<path fill="#EFC11E" d="M109.267,108.822c-3.27-4.517-7.198-8.432-12.311-10.799c-2.791-1.292-5.816-1.569-8.831-1.159
		c-2.213,0.301-3.613,1.172-4.904,2.939c-0.809,1.291-1.16,2.707-1.051,4.247c2.381,3.865,4.209,3.641,5.488-0.679
		c0.914,1.327-1.036,2.913-1.958,1.578c-2.912-4.22,3.266-6.093,5.002-2.098c2.648,6.097-7.852,8.977-10.302,3.716
		c-3.222-6.915,3.602-12.591,10.128-12.431c8.807,0.217,15.764,6.293,20.696,13.109
		C112.171,108.553,110.218,110.137,109.267,108.822L109.267,108.822z"/>
	<path fill="#EFC11E" d="M129.515,96.143c-3.134-4.249-5.555-8.943-7.164-13.877c-0.885-2.716-1.307-5.579-0.755-8.389
		c0.337-1.711,1.479-3.036,2.958-4.016c1.29-0.769,2.703-1.104,4.236-1.005c4.37,0.263,4.38,1.917,0.033,4.958
		c-0.531,1.548,2.054,2.229,2.582,0.692c1.481-4.317-6.979-4.231-5.72,0.989c1.694,7.031,14.265,1.542,9.876-5.91
		c-4.082-6.929-14.7-2.272-16.546,3.602c-2.44,7.771,3.639,18.058,8.173,24.205C128.162,98.714,130.501,97.481,129.515,96.143
		L129.515,96.143z"/>
	<path fill="#D4C2DE" d="M196.052,57.163c-4.023-7.338,7.328-18.601,13.957-19.998c11.677-2.459,5.33,13.845,0.747,17.886
		C207.383,58.025,199.26,63.013,196.052,57.163z"/>
	<path fill="#D4C2DE" d="M220.512,78.005c-3.856-6.57,7.02-16.653,13.372-17.903c11.185-2.204,5.104,12.393,0.713,16.01
		C231.366,78.775,223.584,83.241,220.512,78.005z"/>
	<path fill="#D4C2DE" d="M229.977,97.178c0.152-7.617,14.695-10.518,20.764-8.259c10.686,3.978-2.136,13.233-7.771,14.019
		C238.824,103.516,229.854,103.247,229.977,97.178z"/>
	<g>
		<path fill="#FFFFFF" d="M137.505,117.228c0,0,6.445,0.16,12.765-2.487c3.635-1.519,0.36-17.15-8.958-15.551
			C131.701,100.83,133.461,114.622,137.505,117.228z"/>
		<path fill="#341A14" d="M139.604,116.618c0,0,5.162,0.122,10.217-1.992c2.912-1.22,0.286-13.726-7.171-12.45
			C134.96,103.493,136.369,114.53,139.604,116.618z"/>
		<path fill="#FFFFFF" d="M146.265,106.111c0.175,1.029-0.561,2.019-1.646,2.2c-1.085,0.191-2.112-0.496-2.286-1.525
			c-0.177-1.037,0.561-2.018,1.646-2.205C145.063,104.391,146.089,105.077,146.265,106.111z"/>
	</g>
	<g>
		<path fill="#FFFFFF" d="M108.322,134.792c0,0,6.387-0.879,12.2-4.506c3.343-2.085-2.402-16.986-11.341-13.91
			C99.956,119.542,103.911,132.87,108.322,134.792z"/>
		<path fill="#341A14" d="M110.296,133.854c0,0,5.112-0.711,9.764-3.608c2.678-1.672-1.924-13.594-9.079-11.137
			C103.601,121.644,106.765,132.312,110.296,133.854z"/>
		<path fill="#FFFFFF" d="M115.181,122.412c0.337,0.987-0.229,2.083-1.271,2.436c-1.042,0.362-2.167-0.148-2.502-1.138
			c-0.341-0.993,0.228-2.082,1.269-2.44C113.718,120.906,114.841,121.419,115.181,122.412z"/>
	</g>
	<path fill="#5C2F22" d="M125.479,143.832c10.437,4.238,22.593-0.755,25.332-12.037c0.375-1.544-2-2.197-2.375-0.654
		c-2.453,10.1-13.103,14.051-22.302,10.314C124.661,140.858,124.026,143.24,125.479,143.832L125.479,143.832z"/>
</g>
</svg>
