<?xml version="1.0" encoding="utf-8"?>
<!-- Generator: Adobe Illustrator 16.0.0, SVG Export Plug-In . SVG Version: 6.00 Build 0)  -->
<!DOCTYPE svg PUBLIC "-//W3C//DTD SVG 1.1//EN" "http://www.w3.org/Graphics/SVG/1.1/DTD/svg11.dtd">
<svg version="1.1" id="Layer_1" xmlns="http://www.w3.org/2000/svg" xmlns:xlink="http://www.w3.org/1999/xlink" x="0px" y="0px"
	 width="274px" height="274px" viewBox="0 0 274 274" enable-background="new 0 0 274 274" xml:space="preserve">
<g>
	<g opacity="0.16">
		
			<linearGradient id="SVGID_1_" gradientUnits="userSpaceOnUse" x1="-147.1406" y1="-720.582" x2="90.0957" y2="-720.582" gradientTransform="matrix(0.1263 0.992 -0.992 0.1263 -570.0688 266.1162)">
			<stop  offset="0" style="stop-color:#31AAE1"/>
			<stop  offset="1" style="stop-color:#2CA3D8"/>
		</linearGradient>
		<path fill="url(#SVGID_1_)" d="M258.817,131.836C250.545,66.849,191.16,20.872,126.17,29.142
			C61.181,37.413,15.207,96.801,23.476,161.789c8.272,64.988,67.658,110.966,132.647,102.693
			C221.11,256.213,267.089,196.824,258.817,131.836z M66.354,175.293c-8.525-12.047-14.335-26.38-16.343-42.159
			c-6.373-50.054,27.85-95.646,76.434-101.827c48.584-6.185,93.135,29.382,99.506,79.436c2.008,15.772-0.023,31.1-5.258,44.894
			c-9.164,29.296-36.466,52.515-71.178,56.935C114.811,216.987,82.566,201.35,66.354,175.293z"/>
		
			<linearGradient id="SVGID_2_" gradientUnits="userSpaceOnUse" x1="-147.1401" y1="-720.5835" x2="90.0926" y2="-720.5835" gradientTransform="matrix(0.1263 0.992 -0.992 0.1263 -570.0688 266.1162)">
			<stop  offset="0" style="stop-color:#31AAE1"/>
			<stop  offset="1" style="stop-color:#2CA3D8"/>
		</linearGradient>
		<path fill="url(#SVGID_2_)" d="M129.916,58.56c46.235-5.884,88.105,23.821,93.518,66.349c1.35,10.603,0.303,20.997-2.74,30.727
			c5.234-13.794,7.266-29.122,5.258-44.894c-6.371-50.054-50.922-85.62-99.506-79.436C77.861,37.488,43.638,83.08,50.011,133.134
			c2.008,15.779,7.817,30.112,16.343,42.159c-5.389-8.659-9.008-18.467-10.355-29.072C50.584,103.691,83.679,64.445,129.916,58.56z"
			/>
		
			<linearGradient id="SVGID_3_" gradientUnits="userSpaceOnUse" x1="40.8438" y1="-597.0059" x2="-95.8654" y2="-767.3194" gradientTransform="matrix(0.1263 0.992 -0.992 0.1263 -570.0688 266.1162)">
			<stop  offset="0" style="stop-color:#31AAE1"/>
			<stop  offset="1" style="stop-color:#228BB9"/>
		</linearGradient>
		<path fill="url(#SVGID_3_)" d="M129.916,58.56c46.235-5.884,88.105,23.821,93.518,66.349c1.35,10.603,0.303,20.997-2.74,30.727
			c5.234-13.794,7.266-29.122,5.258-44.894c-6.371-50.054-50.922-85.62-99.506-79.436C77.861,37.488,43.638,83.08,50.011,133.134
			c2.008,15.779,7.817,30.112,16.343,42.159c-5.389-8.659-9.008-18.467-10.355-29.072C50.584,103.691,83.679,64.445,129.916,58.56z"
			/>
		<path fill="#FFFFFF" d="M66.354,175.293c16.212,26.057,48.457,41.694,83.162,37.277
			C116.247,216.803,84.875,201.456,66.354,175.293z"/>
		<path fill="#FFFFFF" d="M220.693,155.636c-11.373,29.977-37.902,52.698-71.178,56.935
			C184.228,208.15,211.529,184.932,220.693,155.636z"/>
	</g>
	<g opacity="0.4">
		
			<linearGradient id="SVGID_4_" gradientUnits="userSpaceOnUse" x1="-166.1816" y1="-726.4087" x2="71.0557" y2="-726.4087" gradientTransform="matrix(0.1263 0.992 -0.992 0.1263 -570.0688 266.1162)">
			<stop  offset="0" style="stop-color:#31AAE1"/>
			<stop  offset="1" style="stop-color:#2CA3D8"/>
		</linearGradient>
		<path fill="url(#SVGID_4_)" d="M262.191,112.211C253.923,47.224,194.534,1.248,129.547,9.518
			c-64.99,8.271-110.966,67.66-102.694,132.648c8.272,64.987,67.66,110.963,132.647,102.692
			C224.486,236.586,270.465,177.2,262.191,112.211z M69.73,155.668c-8.526-12.047-14.338-26.379-16.347-42.159
			c-6.37-50.054,27.854-95.646,76.438-101.828c48.585-6.183,93.135,29.383,99.504,79.437c2.008,15.772-0.021,31.1-5.257,44.894
			c-9.163,29.295-36.468,52.516-71.177,56.934C118.187,197.363,85.941,181.725,69.73,155.668z"/>
		
			<linearGradient id="SVGID_5_" gradientUnits="userSpaceOnUse" x1="-166.1812" y1="-726.4082" x2="71.0516" y2="-726.4082" gradientTransform="matrix(0.1263 0.992 -0.992 0.1263 -570.0688 266.1162)">
			<stop  offset="0" style="stop-color:#31AAE1"/>
			<stop  offset="1" style="stop-color:#2CA3D8"/>
		</linearGradient>
		<path fill="url(#SVGID_5_)" d="M133.289,38.936c46.24-5.885,88.108,23.821,93.52,66.35c1.351,10.603,0.306,20.997-2.739,30.726
			c5.235-13.793,7.265-29.121,5.257-44.894c-6.369-50.054-50.919-85.62-99.504-79.437c-48.584,6.183-82.809,51.774-76.438,101.828
			c2.009,15.779,7.82,30.112,16.347,42.159c-5.391-8.658-9.007-18.468-10.354-29.071C53.96,84.067,87.055,44.82,133.289,38.936z"/>
		
			<linearGradient id="SVGID_6_" gradientUnits="userSpaceOnUse" x1="21.8032" y1="-602.8325" x2="-114.9066" y2="-773.147" gradientTransform="matrix(0.1263 0.992 -0.992 0.1263 -570.0688 266.1162)">
			<stop  offset="0" style="stop-color:#31AAE1"/>
			<stop  offset="1" style="stop-color:#228BB9"/>
		</linearGradient>
		<path fill="url(#SVGID_6_)" d="M133.289,38.936c46.24-5.885,88.108,23.821,93.52,66.35c1.351,10.603,0.306,20.997-2.739,30.726
			c5.235-13.793,7.265-29.121,5.257-44.894c-6.369-50.054-50.919-85.62-99.504-79.437c-48.584,6.183-82.809,51.774-76.438,101.828
			c2.009,15.779,7.82,30.112,16.347,42.159c-5.391-8.658-9.007-18.468-10.354-29.071C53.96,84.067,87.055,44.82,133.289,38.936z"/>
		<path fill="#FFFFFF" d="M69.73,155.668c16.211,26.057,48.457,41.695,83.163,37.277C119.621,197.18,88.25,181.832,69.73,155.668z"
			/>
		<path fill="#FFFFFF" d="M224.069,136.011c-11.374,29.977-37.903,52.698-71.177,56.934
			C187.602,188.527,214.906,165.307,224.069,136.011z"/>
	</g>
	<g opacity="0.46">
		
			<linearGradient id="SVGID_7_" gradientUnits="userSpaceOnUse" x1="-159.3301" y1="-710.3711" x2="77.9053" y2="-710.3711" gradientTransform="matrix(0.1263 0.992 -0.992 0.1263 -570.0688 266.1162)">
			<stop  offset="0" style="stop-color:#31AAE1"/>
			<stop  offset="1" style="stop-color:#2CA3D8"/>
		</linearGradient>
		<path fill="url(#SVGID_7_)" d="M247.146,121.033C238.875,56.047,179.488,10.068,114.502,18.34
			C49.513,26.611,3.536,85.998,11.809,150.987c8.27,64.987,67.657,110.964,132.644,102.691
			C209.439,245.408,255.42,186.021,247.146,121.033z M54.685,164.489c-8.526-12.044-14.338-26.378-16.346-42.156
			c-6.368-50.054,27.853-95.646,76.436-101.83c48.584-6.184,93.137,29.382,99.506,79.436c2.008,15.774-0.021,31.101-5.257,44.893
			c-9.166,29.298-36.468,52.518-71.179,56.936C103.142,206.184,70.895,190.547,54.685,164.489z"/>
		
			<linearGradient id="SVGID_8_" gradientUnits="userSpaceOnUse" x1="-159.3306" y1="-710.3701" x2="77.9022" y2="-710.3701" gradientTransform="matrix(0.1263 0.992 -0.992 0.1263 -570.0688 266.1162)">
			<stop  offset="0" style="stop-color:#31AAE1"/>
			<stop  offset="1" style="stop-color:#2CA3D8"/>
		</linearGradient>
		<path fill="url(#SVGID_8_)" d="M118.244,47.757c46.237-5.882,88.107,23.822,93.52,66.352c1.349,10.601,0.303,20.998-2.739,30.724
			c5.235-13.792,7.265-29.119,5.257-44.893c-6.369-50.054-50.922-85.62-99.506-79.436c-48.583,6.184-82.804,51.776-76.436,101.83
			c2.008,15.778,7.819,30.112,16.346,42.156c-5.389-8.658-9.006-18.466-10.356-29.071C38.917,92.888,72.01,53.644,118.244,47.757z"
			/>
		
			<linearGradient id="SVGID_9_" gradientUnits="userSpaceOnUse" x1="28.6538" y1="-586.7949" x2="-108.0546" y2="-757.1075" gradientTransform="matrix(0.1263 0.992 -0.992 0.1263 -570.0688 266.1162)">
			<stop  offset="0" style="stop-color:#31AAE1"/>
			<stop  offset="1" style="stop-color:#228BB9"/>
		</linearGradient>
		<path fill="url(#SVGID_9_)" d="M118.244,47.757c46.237-5.882,88.107,23.822,93.52,66.352c1.349,10.601,0.303,20.998-2.739,30.724
			c5.235-13.792,7.265-29.119,5.257-44.893c-6.369-50.054-50.922-85.62-99.506-79.436c-48.583,6.184-82.804,51.776-76.436,101.83
			c2.008,15.778,7.819,30.112,16.346,42.156c-5.389-8.658-9.006-18.466-10.356-29.071C38.917,92.888,72.01,53.644,118.244,47.757z"
			/>
		<path fill="#FFFFFF" d="M54.685,164.489c16.21,26.058,48.457,41.694,83.16,37.278C104.578,206.001,73.206,190.655,54.685,164.489z
			"/>
		<path fill="#FFFFFF" d="M209.024,144.832c-11.376,29.979-37.903,52.701-71.179,56.936
			C172.557,197.35,199.858,174.13,209.024,144.832z"/>
	</g>
	<g>
		
			<linearGradient id="SVGID_10_" gradientUnits="userSpaceOnUse" x1="-262.8555" y1="-696.0449" x2="-25.6167" y2="-696.0449" gradientTransform="matrix(0 1 -1 0 -554.8984 279.7993)">
			<stop  offset="0" style="stop-color:#31AAE1"/>
			<stop  offset="1" style="stop-color:#2CA3D8"/>
		</linearGradient>
		<path fill="url(#SVGID_10_)" d="M259.767,135.563c0-65.512-53.106-118.62-118.618-118.62c-65.514,0-118.622,53.107-118.622,118.62
			c0,65.513,53.107,118.619,118.622,118.619C206.66,254.183,259.767,201.076,259.767,135.563z M63.358,154.373
			c-6.938-13.027-10.893-27.979-10.893-43.886c0-50.458,39.706-91.362,88.683-91.362c48.975,0,88.678,40.905,88.678,91.362
			c0,15.9-3.949,30.849-10.883,43.87c-12.789,27.905-42.805,47.493-77.795,47.493C106.163,201.851,76.15,182.268,63.358,154.373z"/>
		
			<linearGradient id="SVGID_11_" gradientUnits="userSpaceOnUse" x1="-262.8555" y1="-696.0439" x2="-25.6142" y2="-696.0439" gradientTransform="matrix(0 1 -1 0 -554.8984 279.7993)">
			<stop  offset="0" style="stop-color:#31AAE1"/>
			<stop  offset="1" style="stop-color:#2CA3D8"/>
		</linearGradient>
		<path fill="url(#SVGID_11_)" d="M141.148,46.598c46.607,0,84.392,34.755,84.392,77.627c0,10.687-2.348,20.868-6.597,30.132
			c6.934-13.021,10.883-27.97,10.883-43.87c0-50.458-39.703-91.362-88.678-91.362c-48.977,0-88.683,40.905-88.683,91.362
			c0,15.906,3.954,30.858,10.893,43.886c-4.251-9.271-6.604-19.458-6.604-30.147C56.754,81.354,94.538,46.598,141.148,46.598z"/>
		
			<linearGradient id="SVGID_12_" gradientUnits="userSpaceOnUse" x1="-74.8701" y1="-572.4663" x2="-211.58" y2="-742.7808" gradientTransform="matrix(0 1 -1 0 -554.8984 279.7993)">
			<stop  offset="0" style="stop-color:#31AAE1"/>
			<stop  offset="1" style="stop-color:#228BB9"/>
		</linearGradient>
		<path fill="url(#SVGID_12_)" d="M141.148,46.598c46.607,0,84.392,34.755,84.392,77.627c0,10.687-2.348,20.868-6.597,30.132
			c6.934-13.021,10.883-27.97,10.883-43.87c0-50.458-39.703-91.362-88.678-91.362c-48.977,0-88.683,40.905-88.683,91.362
			c0,15.906,3.954,30.858,10.893,43.886c-4.251-9.271-6.604-19.458-6.604-30.147C56.754,81.354,94.538,46.598,141.148,46.598z"/>
		<path fill="#FFFFFF" d="M63.358,154.373c12.792,27.895,42.805,47.478,77.791,47.478
			C107.611,201.851,78.426,182.664,63.358,154.373z"/>
		<path fill="#FFFFFF" d="M218.943,154.357c-15.066,28.304-44.254,47.493-77.795,47.493
			C176.139,201.851,206.154,182.263,218.943,154.357z"/>
	</g>
	<g opacity="0.36">
		
			<linearGradient id="SVGID_13_" gradientUnits="userSpaceOnUse" x1="-159.3301" y1="-710.3711" x2="77.9053" y2="-710.3711" gradientTransform="matrix(0.1263 0.992 -0.992 0.1263 -570.0688 266.1162)">
			<stop  offset="0" style="stop-color:#31AAE1"/>
			<stop  offset="1" style="stop-color:#2CA3D8"/>
		</linearGradient>
		<path fill="url(#SVGID_13_)" d="M247.146,121.033C238.875,56.047,179.488,10.068,114.502,18.34
			C49.513,26.611,3.536,85.998,11.809,150.987c8.27,64.987,67.657,110.964,132.644,102.691
			C209.439,245.408,255.42,186.021,247.146,121.033z M54.685,164.489c-8.526-12.044-14.338-26.378-16.346-42.156
			c-6.368-50.054,27.853-95.646,76.436-101.83c48.584-6.184,93.137,29.382,99.506,79.436c2.008,15.774-0.021,31.101-5.257,44.893
			c-9.166,29.298-36.468,52.518-71.179,56.936C103.142,206.184,70.895,190.547,54.685,164.489z"/>
		
			<linearGradient id="SVGID_14_" gradientUnits="userSpaceOnUse" x1="-159.3306" y1="-710.3701" x2="77.9022" y2="-710.3701" gradientTransform="matrix(0.1263 0.992 -0.992 0.1263 -570.0688 266.1162)">
			<stop  offset="0" style="stop-color:#31AAE1"/>
			<stop  offset="1" style="stop-color:#2CA3D8"/>
		</linearGradient>
		<path fill="url(#SVGID_14_)" d="M118.244,47.757c46.237-5.882,88.107,23.822,93.52,66.352c1.349,10.601,0.303,20.998-2.739,30.724
			c5.235-13.792,7.265-29.119,5.257-44.893c-6.369-50.054-50.922-85.62-99.506-79.436c-48.583,6.184-82.804,51.776-76.436,101.83
			c2.008,15.778,7.819,30.112,16.346,42.156c-5.389-8.658-9.006-18.466-10.356-29.071C38.917,92.888,72.01,53.644,118.244,47.757z"
			/>
		
			<linearGradient id="SVGID_15_" gradientUnits="userSpaceOnUse" x1="28.6538" y1="-586.7949" x2="-108.0546" y2="-757.1075" gradientTransform="matrix(0.1263 0.992 -0.992 0.1263 -570.0688 266.1162)">
			<stop  offset="0" style="stop-color:#31AAE1"/>
			<stop  offset="1" style="stop-color:#228BB9"/>
		</linearGradient>
		<path fill="url(#SVGID_15_)" d="M118.244,47.757c46.237-5.882,88.107,23.822,93.52,66.352c1.349,10.601,0.303,20.998-2.739,30.724
			c5.235-13.792,7.265-29.119,5.257-44.893c-6.369-50.054-50.922-85.62-99.506-79.436c-48.583,6.184-82.804,51.776-76.436,101.83
			c2.008,15.778,7.819,30.112,16.346,42.156c-5.389-8.658-9.006-18.466-10.356-29.071C38.917,92.888,72.01,53.644,118.244,47.757z"
			/>
		<path fill="#FFFFFF" d="M54.685,164.489c16.21,26.058,48.457,41.694,83.16,37.278C104.578,206.001,73.206,190.655,54.685,164.489z
			"/>
		<path fill="#FFFFFF" d="M209.024,144.832c-11.376,29.979-37.903,52.701-71.179,56.936
			C172.557,197.35,199.858,174.13,209.024,144.832z"/>
	</g>
	<g opacity="0.1">
		
			<linearGradient id="SVGID_16_" gradientUnits="userSpaceOnUse" x1="-156.9219" y1="-713.6011" x2="80.3145" y2="-713.6011" gradientTransform="matrix(0.1263 0.992 -0.992 0.1263 -570.0688 266.1162)">
			<stop  offset="0" style="stop-color:#31AAE1"/>
			<stop  offset="1" style="stop-color:#2CA3D8"/>
		</linearGradient>
		<path fill="url(#SVGID_16_)" d="M250.655,123.013C242.384,58.027,182.996,12.048,118.009,20.32
			C53.021,28.593,7.044,87.978,15.317,152.967c8.271,64.987,67.659,110.965,132.646,102.693
			C212.948,247.39,258.928,188.001,250.655,123.013z M58.193,166.47c-8.526-12.045-14.338-26.378-16.346-42.157
			c-6.368-50.054,27.854-95.646,76.437-101.83c48.583-6.184,93.136,29.382,99.505,79.436c2.008,15.774-0.021,31.102-5.257,44.894
			c-9.165,29.297-36.468,52.518-71.179,56.935C106.65,208.164,74.403,192.528,58.193,166.47z"/>
		
			<linearGradient id="SVGID_17_" gradientUnits="userSpaceOnUse" x1="-156.9233" y1="-713.5996" x2="80.3094" y2="-713.5996" gradientTransform="matrix(0.1263 0.992 -0.992 0.1263 -570.0688 266.1162)">
			<stop  offset="0" style="stop-color:#31AAE1"/>
			<stop  offset="1" style="stop-color:#2CA3D8"/>
		</linearGradient>
		<path fill="url(#SVGID_17_)" d="M121.753,49.737c46.236-5.882,88.106,23.822,93.518,66.352c1.349,10.6,0.305,20.997-2.739,30.724
			c5.235-13.792,7.265-29.119,5.257-44.894c-6.369-50.053-50.922-85.62-99.505-79.436c-48.582,6.184-82.805,51.776-76.437,101.83
			c2.008,15.779,7.819,30.112,16.346,42.157c-5.389-8.659-9.006-18.466-10.356-29.072C42.424,94.87,75.518,55.623,121.753,49.737z"
			/>
		
			<linearGradient id="SVGID_18_" gradientUnits="userSpaceOnUse" x1="31.0615" y1="-590.0254" x2="-105.6469" y2="-760.338" gradientTransform="matrix(0.1263 0.992 -0.992 0.1263 -570.0688 266.1162)">
			<stop  offset="0" style="stop-color:#31AAE1"/>
			<stop  offset="1" style="stop-color:#228BB9"/>
		</linearGradient>
		<path fill="url(#SVGID_18_)" d="M121.753,49.737c46.236-5.882,88.106,23.822,93.518,66.352c1.349,10.6,0.305,20.997-2.739,30.724
			c5.235-13.792,7.265-29.119,5.257-44.894c-6.369-50.053-50.922-85.62-99.505-79.436c-48.582,6.184-82.805,51.776-76.437,101.83
			c2.008,15.779,7.819,30.112,16.346,42.157c-5.389-8.659-9.006-18.466-10.356-29.072C42.424,94.87,75.518,55.623,121.753,49.737z"
			/>
		<path fill="#FFFFFF" d="M58.193,166.47c16.21,26.059,48.457,41.694,83.161,37.277C108.087,207.982,76.713,192.636,58.193,166.47z"
			/>
		<path fill="#FFFFFF" d="M212.532,146.813c-11.375,29.979-37.903,52.701-71.179,56.935
			C176.064,199.33,203.367,176.109,212.532,146.813z"/>
	</g>
</g>
</svg>
