<?xml version="1.0" encoding="utf-8"?>
<!-- Generator: Adobe Illustrator 16.0.0, SVG Export Plug-In . SVG Version: 6.00 Build 0)  -->
<!DOCTYPE svg PUBLIC "-//W3C//DTD SVG 1.1//EN" "http://www.w3.org/Graphics/SVG/1.1/DTD/svg11.dtd">
<svg version="1.1" id="Layer_1" xmlns="http://www.w3.org/2000/svg" xmlns:xlink="http://www.w3.org/1999/xlink" x="0px" y="0px"
	 width="274px" height="274px" viewBox="0 0 274 274" enable-background="new 0 0 274 274" xml:space="preserve">
<g>
	<g opacity="0.16">
		
			<linearGradient id="SVGID_1_" gradientUnits="userSpaceOnUse" x1="25.7295" y1="137.0103" x2="262.9648" y2="137.0103" gradientTransform="matrix(0.992 -0.1263 0.1263 0.992 -13.6836 15.1709)">
			<stop  offset="0" style="stop-color:#87C542"/>
			<stop  offset="1" style="stop-color:#329D47"/>
		</linearGradient>
		<path fill="url(#SVGID_1_)" d="M131.834,15.183C66.847,23.456,20.87,82.841,29.144,147.828
			c8.271,64.99,67.659,110.967,132.646,102.697c64.987-8.273,110.965-67.66,102.693-132.647
			C256.211,52.89,196.822,6.91,131.834,15.183z M175.292,207.646c-12.046,8.527-26.382,14.338-42.158,16.346
			c-50.054,6.369-95.645-27.852-101.826-76.438c-6.184-48.586,29.381-93.133,79.434-99.505c15.774-2.007,31.104,0.022,44.895,5.256
			c29.298,9.167,52.517,36.467,56.936,71.177C216.984,159.188,201.35,191.436,175.292,207.646z"/>
		
			<linearGradient id="SVGID_2_" gradientUnits="userSpaceOnUse" x1="25.73" y1="137.0103" x2="262.9584" y2="137.0103" gradientTransform="matrix(0.992 -0.1263 0.1263 0.992 -13.6836 15.1709)">
			<stop  offset="0" style="stop-color:#87C542"/>
			<stop  offset="1" style="stop-color:#329D47"/>
		</linearGradient>
		<path fill="url(#SVGID_2_)" d="M58.56,144.086c-5.883-46.236,23.822-88.105,66.352-93.52c10.6-1.349,20.995-0.304,30.725,2.739
			c-13.791-5.234-29.12-7.264-44.895-5.256c-50.053,6.372-85.617,50.919-79.434,99.505c6.182,48.586,51.772,82.807,101.826,76.438
			c15.776-2.008,30.112-7.818,42.158-16.346c-8.657,5.387-18.467,9.006-29.071,10.354C103.69,223.414,64.445,190.32,58.56,144.086z"
			/>
		
			<linearGradient id="SVGID_3_" gradientUnits="userSpaceOnUse" x1="213.7139" y1="260.5859" x2="77.0047" y2="90.2724" gradientTransform="matrix(0.992 -0.1263 0.1263 0.992 -13.6836 15.1709)">
			<stop  offset="0" style="stop-color:#87C542"/>
			<stop  offset="1" style="stop-color:#329D47"/>
		</linearGradient>
		<path fill="url(#SVGID_3_)" d="M58.56,144.086c-5.883-46.236,23.822-88.105,66.352-93.52c10.6-1.349,20.995-0.304,30.725,2.739
			c-13.791-5.234-29.12-7.264-44.895-5.256c-50.053,6.372-85.617,50.919-79.434,99.505c6.182,48.586,51.772,82.807,101.826,76.438
			c15.776-2.008,30.112-7.818,42.158-16.346c-8.657,5.387-18.467,9.006-29.071,10.354C103.69,223.414,64.445,190.32,58.56,144.086z"
			/>
		<linearGradient id="SVGID_4_" gradientUnits="userSpaceOnUse" x1="175.292" y1="166.0645" x2="213.3135" y2="166.0645">
			<stop  offset="0" style="stop-color:#87C542"/>
			<stop  offset="1" style="stop-color:#329D47"/>
		</linearGradient>
		<path fill="url(#SVGID_4_)" d="M175.292,207.646c26.058-16.211,41.692-48.459,37.279-83.164
			C216.805,157.756,201.458,189.125,175.292,207.646z"/>
		<linearGradient id="SVGID_5_" gradientUnits="userSpaceOnUse" x1="155.6357" y1="88.8945" x2="212.5713" y2="88.8945">
			<stop  offset="0" style="stop-color:#87C542"/>
			<stop  offset="1" style="stop-color:#329D47"/>
		</linearGradient>
		<path fill="url(#SVGID_5_)" d="M155.636,53.306c29.977,11.374,52.698,37.904,56.936,71.177
			C208.152,89.772,184.934,62.472,155.636,53.306z"/>
	</g>
	<g opacity="0.4">
		
			<linearGradient id="SVGID_6_" gradientUnits="userSpaceOnUse" x1="6.687" y1="131.1812" x2="243.9229" y2="131.1812" gradientTransform="matrix(0.992 -0.1263 0.1263 0.992 -13.6836 15.1709)">
			<stop  offset="0" style="stop-color:#87C542"/>
			<stop  offset="1" style="stop-color:#329D47"/>
		</linearGradient>
		<path fill="url(#SVGID_6_)" d="M112.211,11.806C47.224,20.078,1.246,79.464,9.518,144.451
			c8.272,64.988,67.659,110.969,132.647,102.695c64.987-8.271,110.964-67.658,102.692-132.647
			C236.585,49.513,177.199,3.535,112.211,11.806z M155.669,204.268c-12.046,8.529-26.382,14.34-42.16,16.35
			c-50.053,6.367-95.645-27.854-101.827-76.438C5.499,95.594,41.063,51.044,91.118,44.673c15.773-2.005,31.102,0.021,44.893,5.258
			c29.299,9.164,52.519,36.465,56.936,71.178C197.36,155.814,181.727,188.057,155.669,204.268z"/>
		
			<linearGradient id="SVGID_7_" gradientUnits="userSpaceOnUse" x1="6.6875" y1="131.1826" x2="243.9211" y2="131.1826" gradientTransform="matrix(0.992 -0.1263 0.1263 0.992 -13.6836 15.1709)">
			<stop  offset="0" style="stop-color:#87C542"/>
			<stop  offset="1" style="stop-color:#329D47"/>
		</linearGradient>
		<path fill="url(#SVGID_7_)" d="M38.935,140.709c-5.883-46.236,23.824-88.106,66.352-93.519c10.601-1.35,20.996-0.303,30.725,2.741
			c-13.791-5.237-29.119-7.264-44.893-5.258C41.063,51.044,5.499,95.594,11.682,144.18c6.183,48.584,51.774,82.805,101.827,76.438
			c15.778-2.01,30.114-7.82,42.16-16.35c-8.66,5.389-18.467,9.008-29.072,10.357C84.065,220.039,44.819,186.945,38.935,140.709z"/>
		
			<linearGradient id="SVGID_8_" gradientUnits="userSpaceOnUse" x1="194.6709" y1="254.7578" x2="57.9633" y2="84.4461" gradientTransform="matrix(0.992 -0.1263 0.1263 0.992 -13.6836 15.1709)">
			<stop  offset="0" style="stop-color:#87C542"/>
			<stop  offset="1" style="stop-color:#329D47"/>
		</linearGradient>
		<path fill="url(#SVGID_8_)" d="M38.935,140.709c-5.883-46.236,23.824-88.106,66.352-93.519c10.601-1.35,20.996-0.303,30.725,2.741
			c-13.791-5.237-29.119-7.264-44.893-5.258C41.063,51.044,5.499,95.594,11.682,144.18c6.183,48.584,51.774,82.805,101.827,76.438
			c15.778-2.01,30.114-7.82,42.16-16.35c-8.66,5.389-18.467,9.008-29.072,10.357C84.065,220.039,44.819,186.945,38.935,140.709z"/>
		<linearGradient id="SVGID_9_" gradientUnits="userSpaceOnUse" x1="155.6689" y1="162.6885" x2="193.6885" y2="162.6885">
			<stop  offset="0" style="stop-color:#87C542"/>
			<stop  offset="1" style="stop-color:#329D47"/>
		</linearGradient>
		<path fill="url(#SVGID_9_)" d="M155.669,204.268c26.058-16.211,41.691-48.453,37.277-83.159
			C197.181,154.377,181.834,185.75,155.669,204.268z"/>
		<linearGradient id="SVGID_10_" gradientUnits="userSpaceOnUse" x1="136.0107" y1="85.52" x2="192.9463" y2="85.52">
			<stop  offset="0" style="stop-color:#87C542"/>
			<stop  offset="1" style="stop-color:#329D47"/>
		</linearGradient>
		<path fill="url(#SVGID_10_)" d="M136.011,49.931c29.977,11.373,52.697,37.902,56.936,71.178
			C188.529,86.396,165.31,59.095,136.011,49.931z"/>
	</g>
	<g opacity="0.46">
		
			<linearGradient id="SVGID_11_" gradientUnits="userSpaceOnUse" x1="13.5396" y1="147.2227" x2="250.7725" y2="147.2227" gradientTransform="matrix(0.992 -0.1263 0.1263 0.992 -13.6836 15.1709)">
			<stop  offset="0" style="stop-color:#87C542"/>
			<stop  offset="1" style="stop-color:#329D47"/>
		</linearGradient>
		<path fill="url(#SVGID_11_)" d="M121.035,26.854C56.045,35.125,10.067,94.512,18.341,159.496
			c8.271,64.992,67.66,110.967,132.644,102.697c64.987-8.273,110.965-67.658,102.693-132.647
			C245.409,64.559,186.021,18.581,121.035,26.854z M164.491,219.314c-12.047,8.527-26.38,14.338-42.158,16.346
			c-50.053,6.371-95.648-27.852-101.831-76.436c-6.183-48.586,29.386-93.135,79.437-99.505c15.773-2.008,31.102,0.022,44.896,5.256
			c29.293,9.166,52.516,36.465,56.932,71.176C206.186,170.859,190.549,203.104,164.491,219.314z"/>
		
			<linearGradient id="SVGID_12_" gradientUnits="userSpaceOnUse" x1="13.5366" y1="147.2207" x2="250.7728" y2="147.2207" gradientTransform="matrix(0.992 -0.1263 0.1263 0.992 -13.6836 15.1709)">
			<stop  offset="0" style="stop-color:#87C542"/>
			<stop  offset="1" style="stop-color:#329D47"/>
		</linearGradient>
		<path fill="url(#SVGID_12_)" d="M47.759,155.752c-5.888-46.232,23.818-88.103,66.35-93.515c10.601-1.35,20.996-0.304,30.726,2.739
			c-13.794-5.234-29.122-7.264-44.896-5.256c-50.051,6.37-85.619,50.919-79.437,99.505c6.183,48.584,51.778,82.807,101.831,76.436
			c15.778-2.008,30.111-7.818,42.158-16.346c-8.662,5.391-18.467,9.01-29.076,10.357C92.89,235.08,53.644,201.99,47.759,155.752z"/>
		
			<linearGradient id="SVGID_13_" gradientUnits="userSpaceOnUse" x1="201.5234" y1="270.7969" x2="64.8151" y2="100.4843" gradientTransform="matrix(0.992 -0.1263 0.1263 0.992 -13.6836 15.1709)">
			<stop  offset="0" style="stop-color:#87C542"/>
			<stop  offset="1" style="stop-color:#329D47"/>
		</linearGradient>
		<path fill="url(#SVGID_13_)" d="M47.759,155.752c-5.888-46.232,23.818-88.103,66.35-93.515c10.601-1.35,20.996-0.304,30.726,2.739
			c-13.794-5.234-29.122-7.264-44.896-5.256c-50.051,6.37-85.619,50.919-79.437,99.505c6.183,48.584,51.778,82.807,101.831,76.436
			c15.778-2.008,30.111-7.818,42.158-16.346c-8.662,5.391-18.467,9.01-29.076,10.357C92.89,235.08,53.644,201.99,47.759,155.752z"/>
		<linearGradient id="SVGID_14_" gradientUnits="userSpaceOnUse" x1="164.4912" y1="177.7334" x2="202.5098" y2="177.7334">
			<stop  offset="0" style="stop-color:#87C542"/>
			<stop  offset="1" style="stop-color:#329D47"/>
		</linearGradient>
		<path fill="url(#SVGID_14_)" d="M164.491,219.314c26.058-16.211,41.694-48.455,37.274-83.162
			C206,169.422,190.654,200.795,164.491,219.314z"/>
		<linearGradient id="SVGID_15_" gradientUnits="userSpaceOnUse" x1="144.834" y1="100.5645" x2="201.7656" y2="100.5645">
			<stop  offset="0" style="stop-color:#87C542"/>
			<stop  offset="1" style="stop-color:#329D47"/>
		</linearGradient>
		<path fill="url(#SVGID_15_)" d="M144.834,64.976c29.976,11.372,52.697,37.904,56.932,71.176
			C197.35,101.441,174.127,74.142,144.834,64.976z"/>
	</g>
	<g>
		<linearGradient id="SVGID_16_" gradientUnits="userSpaceOnUse" x1="16.9424" y1="132.8535" x2="254.1816" y2="132.8535">
			<stop  offset="0" style="stop-color:#87C542"/>
			<stop  offset="1" style="stop-color:#329D47"/>
		</linearGradient>
		<path fill="url(#SVGID_16_)" d="M135.562,14.234c-65.508,0-118.619,53.107-118.619,118.62
			c0,65.512,53.111,118.619,118.619,118.619c65.514,0,118.62-53.107,118.62-118.619C254.182,67.341,201.075,14.234,135.562,14.234z
			 M154.372,210.643c-13.026,6.938-27.98,10.893-43.883,10.893c-50.459,0-91.365-39.705-91.365-88.682
			c0-48.976,40.906-88.679,91.365-88.679c15.898,0,30.848,3.948,43.869,10.882c27.904,12.791,47.492,42.806,47.492,77.797
			C201.851,167.84,182.27,197.85,154.372,210.643z"/>
		<linearGradient id="SVGID_17_" gradientUnits="userSpaceOnUse" x1="16.9429" y1="132.8545" x2="254.1842" y2="132.8545">
			<stop  offset="0" style="stop-color:#87C542"/>
			<stop  offset="1" style="stop-color:#329D47"/>
		</linearGradient>
		<path fill="url(#SVGID_17_)" d="M46.599,132.854c0-46.61,34.756-84.395,77.625-84.395c10.688,0,20.87,2.351,30.135,6.598
			c-13.021-6.934-27.971-10.882-43.869-10.882c-50.459,0-91.365,39.703-91.365,88.679c0,48.977,40.906,88.682,91.365,88.682
			c15.902,0,30.856-3.955,43.883-10.893c-9.271,4.254-19.457,6.604-30.148,6.604C81.354,217.246,46.599,179.463,46.599,132.854z"/>
		<linearGradient id="SVGID_18_" gradientUnits="userSpaceOnUse" x1="204.9297" y1="256.4316" x2="68.2206" y2="86.1181">
			<stop  offset="0" style="stop-color:#87C542"/>
			<stop  offset="1" style="stop-color:#329D47"/>
		</linearGradient>
		<path fill="url(#SVGID_18_)" d="M46.599,132.854c0-46.61,34.756-84.395,77.625-84.395c10.688,0,20.87,2.351,30.135,6.598
			c-13.021-6.934-27.971-10.882-43.869-10.882c-50.459,0-91.365,39.703-91.365,88.679c0,48.977,40.906,88.682,91.365,88.682
			c15.902,0,30.856-3.955,43.883-10.893c-9.271,4.254-19.457,6.604-30.148,6.604C81.354,217.246,46.599,179.463,46.599,132.854z"/>
		<linearGradient id="SVGID_19_" gradientUnits="userSpaceOnUse" x1="154.3721" y1="171.748" x2="201.8506" y2="171.748">
			<stop  offset="0" style="stop-color:#87C542"/>
			<stop  offset="1" style="stop-color:#329D47"/>
		</linearGradient>
		<path fill="url(#SVGID_19_)" d="M154.372,210.643c27.897-12.793,47.479-42.803,47.479-77.789
			C201.851,166.391,182.668,195.576,154.372,210.643z"/>
		<linearGradient id="SVGID_20_" gradientUnits="userSpaceOnUse" x1="154.3584" y1="93.9551" x2="201.8506" y2="93.9551">
			<stop  offset="0" style="stop-color:#87C542"/>
			<stop  offset="1" style="stop-color:#329D47"/>
		</linearGradient>
		<path fill="url(#SVGID_20_)" d="M154.358,55.056c28.301,15.069,47.492,44.255,47.492,77.797
			C201.851,97.862,182.263,67.847,154.358,55.056z"/>
	</g>
	<g opacity="0.36">
		
			<linearGradient id="SVGID_21_" gradientUnits="userSpaceOnUse" x1="13.5396" y1="147.2227" x2="250.7725" y2="147.2227" gradientTransform="matrix(0.992 -0.1263 0.1263 0.992 -13.6836 15.1709)">
			<stop  offset="0" style="stop-color:#87C542"/>
			<stop  offset="1" style="stop-color:#329D47"/>
		</linearGradient>
		<path fill="url(#SVGID_21_)" d="M121.035,26.854C56.045,35.125,10.067,94.512,18.341,159.496
			c8.271,64.992,67.66,110.967,132.644,102.697c64.987-8.273,110.965-67.658,102.693-132.647
			C245.409,64.559,186.021,18.581,121.035,26.854z M164.491,219.314c-12.047,8.527-26.38,14.338-42.158,16.346
			c-50.053,6.371-95.648-27.852-101.831-76.436c-6.183-48.586,29.386-93.135,79.437-99.505c15.773-2.008,31.102,0.022,44.896,5.256
			c29.293,9.166,52.516,36.465,56.932,71.176C206.186,170.859,190.549,203.104,164.491,219.314z"/>
		
			<linearGradient id="SVGID_22_" gradientUnits="userSpaceOnUse" x1="13.5366" y1="147.2207" x2="250.7728" y2="147.2207" gradientTransform="matrix(0.992 -0.1263 0.1263 0.992 -13.6836 15.1709)">
			<stop  offset="0" style="stop-color:#87C542"/>
			<stop  offset="1" style="stop-color:#329D47"/>
		</linearGradient>
		<path fill="url(#SVGID_22_)" d="M47.759,155.752c-5.888-46.232,23.818-88.103,66.35-93.515c10.601-1.35,20.996-0.304,30.726,2.739
			c-13.794-5.234-29.122-7.264-44.896-5.256c-50.051,6.37-85.619,50.919-79.437,99.505c6.183,48.584,51.778,82.807,101.831,76.436
			c15.778-2.008,30.111-7.818,42.158-16.346c-8.662,5.391-18.467,9.01-29.076,10.357C92.89,235.08,53.644,201.99,47.759,155.752z"/>
		
			<linearGradient id="SVGID_23_" gradientUnits="userSpaceOnUse" x1="201.5234" y1="270.7969" x2="64.8151" y2="100.4843" gradientTransform="matrix(0.992 -0.1263 0.1263 0.992 -13.6836 15.1709)">
			<stop  offset="0" style="stop-color:#87C542"/>
			<stop  offset="1" style="stop-color:#329D47"/>
		</linearGradient>
		<path fill="url(#SVGID_23_)" d="M47.759,155.752c-5.888-46.232,23.818-88.103,66.35-93.515c10.601-1.35,20.996-0.304,30.726,2.739
			c-13.794-5.234-29.122-7.264-44.896-5.256c-50.051,6.37-85.619,50.919-79.437,99.505c6.183,48.584,51.778,82.807,101.831,76.436
			c15.778-2.008,30.111-7.818,42.158-16.346c-8.662,5.391-18.467,9.01-29.076,10.357C92.89,235.08,53.644,201.99,47.759,155.752z"/>
		<linearGradient id="SVGID_24_" gradientUnits="userSpaceOnUse" x1="164.4912" y1="177.7334" x2="202.5098" y2="177.7334">
			<stop  offset="0" style="stop-color:#87C542"/>
			<stop  offset="1" style="stop-color:#329D47"/>
		</linearGradient>
		<path fill="url(#SVGID_24_)" d="M164.491,219.314c26.058-16.211,41.694-48.455,37.274-83.162
			C206,169.422,190.654,200.795,164.491,219.314z"/>
		<linearGradient id="SVGID_25_" gradientUnits="userSpaceOnUse" x1="144.834" y1="100.5645" x2="201.7656" y2="100.5645">
			<stop  offset="0" style="stop-color:#87C542"/>
			<stop  offset="1" style="stop-color:#329D47"/>
		</linearGradient>
		<path fill="url(#SVGID_25_)" d="M144.834,64.976c29.976,11.372,52.697,37.904,56.932,71.176
			C197.35,101.441,174.127,74.142,144.834,64.976z"/>
	</g>
	<g opacity="0.1">
		
			<linearGradient id="SVGID_26_" gradientUnits="userSpaceOnUse" x1="15.9453" y1="143.9922" x2="253.1826" y2="143.9922" gradientTransform="matrix(0.992 -0.1263 0.1263 0.992 -13.6836 15.1709)">
			<stop  offset="0" style="stop-color:#87C542"/>
			<stop  offset="1" style="stop-color:#329D47"/>
		</linearGradient>
		<path fill="url(#SVGID_26_)" d="M123.017,23.346C58.026,31.616,12.048,91.003,20.319,155.99
			c8.272,64.986,67.66,110.965,132.647,102.695c64.987-8.273,110.965-67.66,102.693-132.647
			C247.388,61.051,188,15.073,123.017,23.346z M166.47,215.807c-12.046,8.527-26.377,14.338-42.158,16.346
			c-50.055,6.371-95.645-27.852-101.828-76.436c-6.183-48.586,29.383-93.135,79.437-99.505c15.773-2.008,31.097,0.022,44.892,5.256
			c29.299,9.166,52.517,36.465,56.937,71.178C208.164,167.352,192.527,199.596,166.47,215.807z"/>
		
			<linearGradient id="SVGID_27_" gradientUnits="userSpaceOnUse" x1="15.9453" y1="143.9922" x2="253.1772" y2="143.9922" gradientTransform="matrix(0.992 -0.1263 0.1263 0.992 -13.6836 15.1709)">
			<stop  offset="0" style="stop-color:#87C542"/>
			<stop  offset="1" style="stop-color:#329D47"/>
		</linearGradient>
		<path fill="url(#SVGID_27_)" d="M49.737,152.246c-5.885-46.234,23.824-88.106,66.35-93.517c10.605-1.35,20.998-0.306,30.725,2.739
			c-13.795-5.234-29.118-7.264-44.892-5.256c-50.054,6.37-85.619,50.919-79.437,99.505c6.184,48.584,51.773,82.807,101.828,76.436
			c15.781-2.008,30.112-7.818,42.158-16.346c-8.659,5.389-18.467,9.01-29.072,10.355C94.868,231.572,55.622,198.482,49.737,152.246z
			"/>
		
			<linearGradient id="SVGID_28_" gradientUnits="userSpaceOnUse" x1="203.9297" y1="267.5674" x2="67.2213" y2="97.2548" gradientTransform="matrix(0.992 -0.1263 0.1263 0.992 -13.6836 15.1709)">
			<stop  offset="0" style="stop-color:#87C542"/>
			<stop  offset="1" style="stop-color:#329D47"/>
		</linearGradient>
		<path fill="url(#SVGID_28_)" d="M49.737,152.246c-5.885-46.234,23.824-88.106,66.35-93.517c10.605-1.35,20.998-0.306,30.725,2.739
			c-13.795-5.234-29.118-7.264-44.892-5.256c-50.054,6.37-85.619,50.919-79.437,99.505c6.184,48.584,51.773,82.807,101.828,76.436
			c15.781-2.008,30.112-7.818,42.158-16.346c-8.659,5.389-18.467,9.01-29.072,10.355C94.868,231.572,55.622,198.482,49.737,152.246z
			"/>
		<linearGradient id="SVGID_29_" gradientUnits="userSpaceOnUse" x1="166.4697" y1="174.2266" x2="204.4912" y2="174.2266">
			<stop  offset="0" style="stop-color:#87C542"/>
			<stop  offset="1" style="stop-color:#329D47"/>
		</linearGradient>
		<path fill="url(#SVGID_29_)" d="M166.47,215.807c26.058-16.211,41.694-48.455,37.278-83.16
			C207.981,165.914,192.631,197.287,166.47,215.807z"/>
		<linearGradient id="SVGID_30_" gradientUnits="userSpaceOnUse" x1="146.8115" y1="97.0576" x2="203.748" y2="97.0576">
			<stop  offset="0" style="stop-color:#87C542"/>
			<stop  offset="1" style="stop-color:#329D47"/>
		</linearGradient>
		<path fill="url(#SVGID_30_)" d="M146.812,61.468c29.977,11.372,52.702,37.903,56.937,71.178
			C199.328,97.934,176.11,70.634,146.812,61.468z"/>
	</g>
</g>
</svg>
