<?xml version="1.0" encoding="utf-8"?>
<!-- Generator: Adobe Illustrator 16.0.0, SVG Export Plug-In . SVG Version: 6.00 Build 0)  -->
<!DOCTYPE svg PUBLIC "-//W3C//DTD SVG 1.1//EN" "http://www.w3.org/Graphics/SVG/1.1/DTD/svg11.dtd">
<svg version="1.1" id="Layer_1" xmlns="http://www.w3.org/2000/svg" xmlns:xlink="http://www.w3.org/1999/xlink" x="0px" y="0px"
	 width="274px" height="274px" viewBox="0 0 274 274" enable-background="new 0 0 274 274" xml:space="preserve">
<g>
	<g opacity="0.16">
		
			<linearGradient id="SVGID_1_" gradientUnits="userSpaceOnUse" x1="142.7471" y1="420.9277" x2="380.0146" y2="420.9277" gradientTransform="matrix(0.7071 -0.7071 0.7071 0.7071 -337.6348 16.2383)">
			<stop  offset="0" style="stop-color:#FEE03A"/>
			<stop  offset="1" style="stop-color:#FCB52C"/>
		</linearGradient>
		<path fill="url(#SVGID_1_)" d="M51.029,56.438c-40.105,51.805-30.62,126.309,21.181,166.413
			c51.804,40.104,126.306,30.621,166.411-21.18c40.105-51.805,30.624-126.307-21.179-166.412
			C165.641-4.843,91.134,4.634,51.029,56.438z M217.851,161.805c-2.489,14.548-8.515,28.789-18.251,41.366
			c-30.891,39.897-87.328,47.937-126.052,17.955c-38.729-29.984-45.083-86.633-14.192-126.531
			c9.733-12.572,22.007-21.976,35.461-28.027c27.197-14.233,62.922-11.348,90.588,10.07
			C213.07,98.058,224.813,131.914,217.851,161.805z"/>
		
			<linearGradient id="SVGID_2_" gradientUnits="userSpaceOnUse" x1="102.3599" y1="437.582" x2="339.5849" y2="437.582" gradientTransform="matrix(0.6121 -0.7908 0.7908 0.6121 -336.4727 35.9585)">
			<stop  offset="0" style="stop-color:#FEE03A"/>
			<stop  offset="1" style="stop-color:#FCB52C"/>
		</linearGradient>
		<path fill="url(#SVGID_2_)" d="M90.365,199.4c-36.854-28.532-45.458-79.144-19.21-113.043c6.542-8.45,14.631-15.063,23.662-19.79
			c-13.454,6.052-25.728,15.455-35.461,28.027c-30.89,39.898-24.537,96.547,14.192,126.531
			c38.724,29.981,95.161,21.942,126.052-17.955c9.736-12.577,15.762-26.818,18.251-41.366c-2.313,9.931-6.69,19.424-13.235,27.877
			C178.371,223.584,127.219,227.933,90.365,199.4z"/>
		
			<linearGradient id="SVGID_3_" gradientUnits="userSpaceOnUse" x1="290.3428" y1="561.1543" x2="153.6351" y2="390.8426" gradientTransform="matrix(0.6121 -0.7908 0.7908 0.6121 -336.4727 35.9585)">
			<stop  offset="0" style="stop-color:#FEE03A"/>
			<stop  offset="1" style="stop-color:#FCB52C"/>
		</linearGradient>
		<path fill="url(#SVGID_3_)" d="M90.365,199.4c-36.854-28.532-45.458-79.144-19.21-113.043c6.542-8.45,14.631-15.063,23.662-19.79
			c-13.454,6.052-25.728,15.455-35.461,28.027c-30.89,39.898-24.537,96.547,14.192,126.531
			c38.724,29.981,95.161,21.942,126.052-17.955c9.736-12.577,15.762-26.818,18.251-41.366c-2.313,9.931-6.69,19.424-13.235,27.877
			C178.371,223.584,127.219,227.933,90.365,199.4z"/>
		
			<linearGradient id="SVGID_4_" gradientUnits="userSpaceOnUse" x1="289.8594" y1="454.1396" x2="327.8818" y2="454.1396" gradientTransform="matrix(0.7071 -0.7071 0.7071 0.7071 -337.6348 16.2383)">
			<stop  offset="0" style="stop-color:#FEE03A"/>
			<stop  offset="1" style="stop-color:#FCB52C"/>
		</linearGradient>
		<path fill="url(#SVGID_4_)" d="M217.851,161.805c6.962-29.891-4.78-63.747-32.446-85.167
			C211.924,97.171,223.257,130.206,217.851,161.805z"/>
		
			<linearGradient id="SVGID_5_" gradientUnits="userSpaceOnUse" x1="270.2031" y1="376.9688" x2="327.1387" y2="376.9688" gradientTransform="matrix(0.7071 -0.7071 0.7071 0.7071 -337.6348 16.2383)">
			<stop  offset="0" style="stop-color:#FEE03A"/>
			<stop  offset="1" style="stop-color:#FCB52C"/>
		</linearGradient>
		<path fill="url(#SVGID_5_)" d="M94.816,66.567c29.24-13.153,64.063-10.462,90.588,10.07
			C157.738,55.22,122.014,52.334,94.816,66.567z"/>
	</g>
	<g opacity="0.4">
		
			<linearGradient id="SVGID_6_" gradientUnits="userSpaceOnUse" x1="123.1226" y1="417.5508" x2="360.3896" y2="417.5508" gradientTransform="matrix(0.7071 -0.7071 0.7071 0.7071 -337.6348 16.2383)">
			<stop  offset="0" style="stop-color:#FEE03A"/>
			<stop  offset="1" style="stop-color:#FCB52C"/>
		</linearGradient>
		<path fill="url(#SVGID_6_)" d="M34.767,67.928C-5.338,119.731,4.144,194.233,55.946,234.339
			c51.803,40.104,126.306,30.622,166.41-21.18c40.105-51.804,30.627-126.305-21.176-166.409
			C149.376,6.645,74.87,16.124,34.767,67.928z M201.585,173.293c-2.489,14.547-8.513,28.79-18.251,41.368
			c-30.889,39.896-87.326,47.936-126.051,17.953c-38.727-29.982-45.082-86.631-14.19-126.53
			c9.732-12.571,22.006-21.975,35.461-28.026c27.196-14.234,62.921-11.349,90.589,10.07
			C196.805,109.547,208.549,143.403,201.585,173.293z"/>
		
			<linearGradient id="SVGID_7_" gradientUnits="userSpaceOnUse" x1="83.3188" y1="431.7529" x2="320.5456" y2="431.7529" gradientTransform="matrix(0.6121 -0.7908 0.7908 0.6121 -336.4727 35.9585)">
			<stop  offset="0" style="stop-color:#FEE03A"/>
			<stop  offset="1" style="stop-color:#FCB52C"/>
		</linearGradient>
		<path fill="url(#SVGID_7_)" d="M74.1,210.889c-36.855-28.533-45.457-79.145-19.211-113.044
			c6.542-8.448,14.633-15.062,23.665-19.787c-13.455,6.052-25.729,15.455-35.461,28.026c-30.892,39.899-24.537,96.548,14.19,126.53
			c38.725,29.982,95.163,21.943,126.051-17.953c9.738-12.578,15.762-26.821,18.251-41.368c-2.309,9.934-6.687,19.427-13.233,27.88
			C162.106,235.071,110.955,239.422,74.1,210.889z"/>
		
			<linearGradient id="SVGID_8_" gradientUnits="userSpaceOnUse" x1="271.2998" y1="555.3242" x2="134.5944" y2="385.0154" gradientTransform="matrix(0.6121 -0.7908 0.7908 0.6121 -336.4727 35.9585)">
			<stop  offset="0" style="stop-color:#FEE03A"/>
			<stop  offset="1" style="stop-color:#FCB52C"/>
		</linearGradient>
		<path fill="url(#SVGID_8_)" d="M74.1,210.889c-36.855-28.533-45.457-79.145-19.211-113.044
			c6.542-8.448,14.633-15.062,23.665-19.787c-13.455,6.052-25.729,15.455-35.461,28.026c-30.892,39.899-24.537,96.548,14.19,126.53
			c38.725,29.982,95.163,21.943,126.051-17.953c9.738-12.578,15.762-26.821,18.251-41.368c-2.309,9.934-6.687,19.427-13.233,27.88
			C162.106,235.071,110.955,239.422,74.1,210.889z"/>
		
			<linearGradient id="SVGID_9_" gradientUnits="userSpaceOnUse" x1="270.2344" y1="450.7637" x2="308.2578" y2="450.7637" gradientTransform="matrix(0.7071 -0.7071 0.7071 0.7071 -337.6348 16.2383)">
			<stop  offset="0" style="stop-color:#FEE03A"/>
			<stop  offset="1" style="stop-color:#FCB52C"/>
		</linearGradient>
		<path fill="url(#SVGID_9_)" d="M201.585,173.293c6.964-29.89-4.78-63.746-32.442-85.165
			C195.661,108.661,206.993,141.695,201.585,173.293z"/>
		
			<linearGradient id="SVGID_10_" gradientUnits="userSpaceOnUse" x1="250.5801" y1="373.5947" x2="307.5156" y2="373.5947" gradientTransform="matrix(0.7071 -0.7071 0.7071 0.7071 -337.6348 16.2383)">
			<stop  offset="0" style="stop-color:#FEE03A"/>
			<stop  offset="1" style="stop-color:#FCB52C"/>
		</linearGradient>
		<path fill="url(#SVGID_10_)" d="M78.554,78.058c29.239-13.155,64.062-10.462,90.589,10.07
			C141.475,66.709,105.75,63.823,78.554,78.058z"/>
	</g>
	<g opacity="0.46">
		
			<linearGradient id="SVGID_11_" gradientUnits="userSpaceOnUse" x1="131.9448" y1="432.5977" x2="369.21" y2="432.5977" gradientTransform="matrix(0.7071 -0.7071 0.7071 0.7071 -337.6348 16.2383)">
			<stop  offset="0" style="stop-color:#FEE03A"/>
			<stop  offset="1" style="stop-color:#FCB52C"/>
		</linearGradient>
		<path fill="url(#SVGID_11_)" d="M51.644,72.33c-40.103,51.801-30.621,126.307,21.181,166.411
			c51.801,40.104,126.304,30.62,166.41-21.182c40.104-51.802,30.622-126.306-21.181-166.41
			C166.254,11.046,91.749,20.526,51.644,72.33z M218.463,177.693c-2.486,14.546-8.514,28.793-18.251,41.368
			c-30.889,39.898-87.325,47.938-126.052,17.955s-45.081-86.633-14.192-126.529c9.735-12.574,22.008-21.977,35.462-28.028
			c27.196-14.234,62.921-11.348,90.585,10.07C213.684,113.947,225.426,147.806,218.463,177.693z"/>
		
			<linearGradient id="SVGID_12_" gradientUnits="userSpaceOnUse" x1="90.168" y1="447.793" x2="327.3939" y2="447.793" gradientTransform="matrix(0.6121 -0.7908 0.7908 0.6121 -336.4727 35.9585)">
			<stop  offset="0" style="stop-color:#FEE03A"/>
			<stop  offset="1" style="stop-color:#FCB52C"/>
		</linearGradient>
		<path fill="url(#SVGID_12_)" d="M90.978,215.291c-36.856-28.533-45.456-79.146-19.212-113.043
			c6.544-8.451,14.632-15.062,23.665-19.789c-13.454,6.052-25.728,15.454-35.462,28.028
			c-30.889,39.896-24.536,96.547,14.192,126.529s95.164,21.943,126.052-17.955c9.737-12.575,15.765-26.822,18.251-41.368
			c-2.313,9.933-6.691,19.424-13.232,27.879C178.984,239.473,127.832,243.824,90.978,215.291z"/>
		
			<linearGradient id="SVGID_13_" gradientUnits="userSpaceOnUse" x1="278.1504" y1="571.3652" x2="141.4443" y2="401.0554" gradientTransform="matrix(0.6121 -0.7908 0.7908 0.6121 -336.4727 35.9585)">
			<stop  offset="0" style="stop-color:#FEE03A"/>
			<stop  offset="1" style="stop-color:#FCB52C"/>
		</linearGradient>
		<path fill="url(#SVGID_13_)" d="M90.978,215.291c-36.856-28.533-45.456-79.146-19.212-113.043
			c6.544-8.451,14.632-15.062,23.665-19.789c-13.454,6.052-25.728,15.454-35.462,28.028
			c-30.889,39.896-24.536,96.547,14.192,126.529s95.164,21.943,126.052-17.955c9.737-12.575,15.765-26.822,18.251-41.368
			c-2.313,9.933-6.691,19.424-13.232,27.879C178.984,239.473,127.832,243.824,90.978,215.291z"/>
		
			<linearGradient id="SVGID_14_" gradientUnits="userSpaceOnUse" x1="279.0566" y1="465.8086" x2="317.0781" y2="465.8086" gradientTransform="matrix(0.7071 -0.7071 0.7071 0.7071 -337.6348 16.2383)">
			<stop  offset="0" style="stop-color:#FEE03A"/>
			<stop  offset="1" style="stop-color:#FCB52C"/>
		</linearGradient>
		<path fill="url(#SVGID_14_)" d="M218.463,177.693c6.963-29.888-4.779-63.746-32.447-85.164
			C212.536,113.061,223.868,146.096,218.463,177.693z"/>
		
			<linearGradient id="SVGID_15_" gradientUnits="userSpaceOnUse" x1="259.4004" y1="388.6387" x2="316.334" y2="388.6387" gradientTransform="matrix(0.7071 -0.7071 0.7071 0.7071 -337.6348 16.2383)">
			<stop  offset="0" style="stop-color:#FEE03A"/>
			<stop  offset="1" style="stop-color:#FCB52C"/>
		</linearGradient>
		<path fill="url(#SVGID_15_)" d="M95.43,82.459c29.241-13.155,64.066-10.464,90.585,10.07
			C158.352,71.111,122.626,68.225,95.43,82.459z"/>
	</g>
	<g>
		
			<linearGradient id="SVGID_16_" gradientUnits="userSpaceOnUse" x1="131.5093" y1="420.9287" x2="368.7529" y2="420.9287" gradientTransform="matrix(0.7071 -0.7071 0.7071 0.7071 -337.6348 16.2383)">
			<stop  offset="0" style="stop-color:#FEE03A"/>
			<stop  offset="1" style="stop-color:#FCB52C"/>
		</linearGradient>
		<path fill="url(#SVGID_16_)" d="M52.996,53.132C6.67,99.458,6.67,174.563,52.994,220.886
			c46.325,46.325,121.428,46.325,167.755-0.001c46.321-46.322,46.325-121.429-0.001-167.754
			C174.426,6.808,99.318,6.81,52.996,53.132z M205.176,178.716c-4.303,14.115-12.082,27.483-23.329,38.731
			c-35.679,35.679-92.68,36.528-127.311,1.896c-34.63-34.631-33.78-91.63,1.899-127.309c11.244-11.244,24.606-19.022,38.715-23.327
			c28.776-10.687,63.854-3.313,88.595,21.428C208.482,114.874,215.857,149.946,205.176,178.716z"/>
		
			<linearGradient id="SVGID_17_" gradientUnits="userSpaceOnUse" x1="131.5098" y1="420.9287" x2="368.7519" y2="420.9287" gradientTransform="matrix(0.7071 -0.7071 0.7071 0.7071 -337.6348 16.2383)">
			<stop  offset="0" style="stop-color:#FEE03A"/>
			<stop  offset="1" style="stop-color:#FCB52C"/>
		</linearGradient>
		<path fill="url(#SVGID_17_)" d="M73.963,199.916c-32.958-32.957-35.098-84.25-4.784-114.563
			c7.558-7.559,16.418-13.097,25.971-16.645c-14.108,4.305-27.471,12.083-38.715,23.327c-35.679,35.679-36.529,92.678-1.899,127.309
			c34.631,34.632,91.632,33.782,127.311-1.896c11.247-11.248,19.026-24.616,23.329-38.731c-3.546,9.561-9.088,18.425-16.648,25.985
			C158.213,235.015,106.922,232.876,73.963,199.916z"/>
		
			<linearGradient id="SVGID_18_" gradientUnits="userSpaceOnUse" x1="319.499" y1="544.5088" x2="182.7884" y2="374.1934" gradientTransform="matrix(0.7071 -0.7071 0.7071 0.7071 -337.6348 16.2383)">
			<stop  offset="0" style="stop-color:#FEE03A"/>
			<stop  offset="1" style="stop-color:#FCB52C"/>
		</linearGradient>
		<path fill="url(#SVGID_18_)" d="M73.963,199.916c-32.958-32.957-35.098-84.25-4.784-114.563
			c7.558-7.559,16.418-13.097,25.971-16.645c-14.108,4.305-27.471,12.083-38.715,23.327c-35.679,35.679-36.529,92.678-1.899,127.309
			c34.631,34.632,91.632,33.782,127.311-1.896c11.247-11.248,19.026-24.616,23.329-38.731c-3.546,9.561-9.088,18.425-16.648,25.985
			C158.213,235.015,106.922,232.876,73.963,199.916z"/>
		
			<linearGradient id="SVGID_19_" gradientUnits="userSpaceOnUse" x1="268.9395" y1="459.8232" x2="316.4199" y2="459.8232" gradientTransform="matrix(0.7071 -0.7071 0.7071 0.7071 -337.6348 16.2383)">
			<stop  offset="0" style="stop-color:#FEE03A"/>
			<stop  offset="1" style="stop-color:#FCB52C"/>
		</linearGradient>
		<path fill="url(#SVGID_19_)" d="M205.176,178.716c10.682-28.77,3.307-63.842-21.432-88.58
			C207.46,113.852,214.527,148.053,205.176,178.716z"/>
		
			<linearGradient id="SVGID_20_" gradientUnits="userSpaceOnUse" x1="268.9258" y1="382.0283" x2="316.4199" y2="382.0283" gradientTransform="matrix(0.7071 -0.7071 0.7071 0.7071 -337.6348 16.2383)">
			<stop  offset="0" style="stop-color:#FEE03A"/>
			<stop  offset="1" style="stop-color:#FCB52C"/>
		</linearGradient>
		<path fill="url(#SVGID_20_)" d="M95.149,68.708c30.668-9.358,64.878-2.29,88.595,21.428
			C159.004,65.395,123.926,58.021,95.149,68.708z"/>
	</g>
	<g opacity="0.36">
		
			<linearGradient id="SVGID_21_" gradientUnits="userSpaceOnUse" x1="131.9448" y1="432.5977" x2="369.21" y2="432.5977" gradientTransform="matrix(0.7071 -0.7071 0.7071 0.7071 -337.6348 16.2383)">
			<stop  offset="0" style="stop-color:#FEE03A"/>
			<stop  offset="1" style="stop-color:#FCB52C"/>
		</linearGradient>
		<path fill="url(#SVGID_21_)" d="M51.644,72.33c-40.103,51.801-30.621,126.307,21.181,166.411
			c51.801,40.104,126.304,30.62,166.41-21.182c40.104-51.802,30.622-126.306-21.181-166.41
			C166.254,11.046,91.749,20.526,51.644,72.33z M218.463,177.693c-2.486,14.546-8.514,28.793-18.251,41.368
			c-30.889,39.898-87.325,47.938-126.052,17.955s-45.081-86.633-14.192-126.529c9.735-12.574,22.008-21.977,35.462-28.028
			c27.196-14.234,62.921-11.348,90.585,10.07C213.684,113.947,225.426,147.806,218.463,177.693z"/>
		
			<linearGradient id="SVGID_22_" gradientUnits="userSpaceOnUse" x1="90.168" y1="447.793" x2="327.3939" y2="447.793" gradientTransform="matrix(0.6121 -0.7908 0.7908 0.6121 -336.4727 35.9585)">
			<stop  offset="0" style="stop-color:#FEE03A"/>
			<stop  offset="1" style="stop-color:#FCB52C"/>
		</linearGradient>
		<path fill="url(#SVGID_22_)" d="M90.978,215.291c-36.856-28.533-45.456-79.146-19.212-113.043
			c6.544-8.451,14.632-15.062,23.665-19.789c-13.454,6.052-25.728,15.454-35.462,28.028
			c-30.889,39.896-24.536,96.547,14.192,126.529s95.164,21.943,126.052-17.955c9.737-12.575,15.765-26.822,18.251-41.368
			c-2.313,9.933-6.691,19.424-13.232,27.879C178.984,239.473,127.832,243.824,90.978,215.291z"/>
		
			<linearGradient id="SVGID_23_" gradientUnits="userSpaceOnUse" x1="278.1504" y1="571.3652" x2="141.4443" y2="401.0554" gradientTransform="matrix(0.6121 -0.7908 0.7908 0.6121 -336.4727 35.9585)">
			<stop  offset="0" style="stop-color:#FEE03A"/>
			<stop  offset="1" style="stop-color:#FCB52C"/>
		</linearGradient>
		<path fill="url(#SVGID_23_)" d="M90.978,215.291c-36.856-28.533-45.456-79.146-19.212-113.043
			c6.544-8.451,14.632-15.062,23.665-19.789c-13.454,6.052-25.728,15.454-35.462,28.028
			c-30.889,39.896-24.536,96.547,14.192,126.529s95.164,21.943,126.052-17.955c9.737-12.575,15.765-26.822,18.251-41.368
			c-2.313,9.933-6.691,19.424-13.232,27.879C178.984,239.473,127.832,243.824,90.978,215.291z"/>
		
			<linearGradient id="SVGID_24_" gradientUnits="userSpaceOnUse" x1="279.0566" y1="465.8086" x2="317.0781" y2="465.8086" gradientTransform="matrix(0.7071 -0.7071 0.7071 0.7071 -337.6348 16.2383)">
			<stop  offset="0" style="stop-color:#FEE03A"/>
			<stop  offset="1" style="stop-color:#FCB52C"/>
		</linearGradient>
		<path fill="url(#SVGID_24_)" d="M218.463,177.693c6.963-29.888-4.779-63.746-32.447-85.164
			C212.536,113.061,223.868,146.096,218.463,177.693z"/>
		
			<linearGradient id="SVGID_25_" gradientUnits="userSpaceOnUse" x1="259.4004" y1="388.6387" x2="316.334" y2="388.6387" gradientTransform="matrix(0.7071 -0.7071 0.7071 0.7071 -337.6348 16.2383)">
			<stop  offset="0" style="stop-color:#FEE03A"/>
			<stop  offset="1" style="stop-color:#FCB52C"/>
		</linearGradient>
		<path fill="url(#SVGID_25_)" d="M95.43,82.459c29.241-13.155,64.066-10.464,90.585,10.07
			C158.352,71.111,122.626,68.225,95.43,82.459z"/>
	</g>
	<g opacity="0.1">
		
			<linearGradient id="SVGID_26_" gradientUnits="userSpaceOnUse" x1="133.9268" y1="429.0898" x2="371.1904" y2="429.0898" gradientTransform="matrix(0.7071 -0.7071 0.7071 0.7071 -337.6348 16.2383)">
			<stop  offset="0" style="stop-color:#FEE03A"/>
			<stop  offset="1" style="stop-color:#FCB52C"/>
		</linearGradient>
		<path fill="url(#SVGID_26_)" d="M50.564,68.449C10.46,120.25,19.942,194.755,71.742,234.855
			c51.803,40.108,126.308,30.625,166.412-21.177c40.103-51.801,30.621-126.306-21.181-166.41
			C165.174,7.167,90.668,16.646,50.564,68.449z M217.383,173.813c-2.486,14.546-8.516,28.789-18.251,41.369
			c-30.889,39.898-87.325,47.937-126.052,17.955c-38.728-29.983-45.081-86.634-14.192-126.53
			C68.623,94.032,80.896,84.63,94.35,78.579c27.197-14.235,62.918-11.353,90.586,10.069
			C212.603,110.066,224.346,143.926,217.383,173.813z"/>
		
			<linearGradient id="SVGID_27_" gradientUnits="userSpaceOnUse" x1="92.5752" y1="444.5635" x2="329.8011" y2="444.5635" gradientTransform="matrix(0.6121 -0.7908 0.7908 0.6121 -336.4727 35.9585)">
			<stop  offset="0" style="stop-color:#FEE03A"/>
			<stop  offset="1" style="stop-color:#FCB52C"/>
		</linearGradient>
		<path fill="url(#SVGID_27_)" d="M89.897,211.41c-36.855-28.533-45.455-79.146-19.211-113.044
			c6.544-8.45,14.633-15.061,23.664-19.787c-13.454,6.051-25.727,15.453-35.461,28.027c-30.889,39.896-24.536,96.547,14.192,126.53
			c38.727,29.981,95.163,21.943,126.052-17.955c9.735-12.58,15.765-26.823,18.251-41.369c-2.313,9.933-6.69,19.427-13.232,27.879
			C177.902,235.589,126.751,239.942,89.897,211.41z"/>
		
			<linearGradient id="SVGID_28_" gradientUnits="userSpaceOnUse" x1="280.5576" y1="568.1357" x2="143.8515" y2="397.8259" gradientTransform="matrix(0.6121 -0.7908 0.7908 0.6121 -336.4727 35.9585)">
			<stop  offset="0" style="stop-color:#FEE03A"/>
			<stop  offset="1" style="stop-color:#FCB52C"/>
		</linearGradient>
		<path fill="url(#SVGID_28_)" d="M89.897,211.41c-36.855-28.533-45.455-79.146-19.211-113.044
			c6.544-8.45,14.633-15.061,23.664-19.787c-13.454,6.051-25.727,15.453-35.461,28.027c-30.889,39.896-24.536,96.547,14.192,126.53
			c38.727,29.981,95.163,21.943,126.052-17.955c9.735-12.58,15.765-26.823,18.251-41.369c-2.313,9.933-6.69,19.427-13.232,27.879
			C177.902,235.589,126.751,239.942,89.897,211.41z"/>
		
			<linearGradient id="SVGID_29_" gradientUnits="userSpaceOnUse" x1="281.0371" y1="462.3008" x2="319.0576" y2="462.3008" gradientTransform="matrix(0.7071 -0.7071 0.7071 0.7071 -337.6348 16.2383)">
			<stop  offset="0" style="stop-color:#FEE03A"/>
			<stop  offset="1" style="stop-color:#FCB52C"/>
		</linearGradient>
		<path fill="url(#SVGID_29_)" d="M217.383,173.813c6.963-29.887-4.78-63.746-32.447-85.164
			C211.456,109.181,222.787,142.215,217.383,173.813z"/>
		
			<linearGradient id="SVGID_30_" gradientUnits="userSpaceOnUse" x1="261.3799" y1="385.1309" x2="318.3145" y2="385.1309" gradientTransform="matrix(0.7071 -0.7071 0.7071 0.7071 -337.6348 16.2383)">
			<stop  offset="0" style="stop-color:#FEE03A"/>
			<stop  offset="1" style="stop-color:#FCB52C"/>
		</linearGradient>
		<path fill="url(#SVGID_30_)" d="M94.35,78.579c29.238-13.159,64.066-10.464,90.586,10.069
			C157.268,67.227,121.546,64.344,94.35,78.579z"/>
	</g>
</g>
</svg>
