<?xml version="1.0" encoding="utf-8"?>
<!-- Generator: Adobe Illustrator 16.0.0, SVG Export Plug-In . SVG Version: 6.00 Build 0)  -->
<!DOCTYPE svg PUBLIC "-//W3C//DTD SVG 1.1//EN" "http://www.w3.org/Graphics/SVG/1.1/DTD/svg11.dtd">
<svg version="1.1" id="Layer_1" xmlns="http://www.w3.org/2000/svg" xmlns:xlink="http://www.w3.org/1999/xlink" x="0px" y="0px"
	 width="324.5px" height="96.5px" viewBox="0 0 324.5 96.5" enable-background="new 0 0 324.5 96.5" xml:space="preserve">
<path fill="#DDDDDD" d="M20.549,93h175.813c0.321-0.426,0.649-0.848,0.955-1.285c0.873,0.459,1.768,0.883,2.674,1.285h120.146
	c1.726-5.096,2.678-10.549,2.678-16.229c0-27.912-22.628-50.542-50.54-50.542c-6.165,0-12.07,1.107-17.532,3.129
	c-7.787-12.209-21.439-20.313-36.993-20.313c-14.569,0-27.473,7.109-35.448,18.041c-6.417-3.563-13.799-5.598-21.659-5.598
	c-2.322,0-4.604,0.178-6.832,0.52C146.265,10.415,133.2,2.745,118.337,2.745c-17.865,0-33.134,11.08-39.336,26.738
	c-7.895-8.391-19.094-13.639-31.524-13.639c-23.904,0-43.283,19.379-43.283,43.283C4.194,72.85,10.586,85.07,20.549,93z"/>
<path fill="#FFFFFF" d="M16.356,93h175.813c0.321-0.426,0.649-0.848,0.955-1.285c0.873,0.459,1.768,0.883,2.674,1.285h120.146
	c1.726-5.096,2.678-10.549,2.678-16.229c0-27.912-22.628-50.542-50.54-50.542c-6.165,0-12.07,1.107-17.532,3.129
	C242.762,17.15,229.11,9.046,213.556,9.046c-14.569,0-27.473,7.109-35.448,18.041c-6.417-3.563-13.799-5.598-21.659-5.598
	c-2.322,0-4.604,0.178-6.832,0.52c-7.545-11.594-20.609-19.264-35.473-19.264c-17.865,0-33.134,11.08-39.336,26.738
	c-7.895-8.391-19.094-13.639-31.524-13.639C19.379,15.844,0,35.223,0,59.127C0,72.85,6.393,85.07,16.356,93z"/>
</svg>
