<?xml version="1.0" encoding="utf-8"?>
<!-- Generator: Adobe Illustrator 16.0.0, SVG Export Plug-In . SVG Version: 6.00 Build 0)  -->
<!DOCTYPE svg PUBLIC "-//W3C//DTD SVG 1.1//EN" "http://www.w3.org/Graphics/SVG/1.1/DTD/svg11.dtd">
<svg version="1.1" id="Layer_1" xmlns="http://www.w3.org/2000/svg" xmlns:xlink="http://www.w3.org/1999/xlink" x="0px" y="0px"
	 width="306px" height="180px" viewBox="0 0 306 180" enable-background="new 0 0 306 180" xml:space="preserve">
<path fill="#DDDDDD" d="M270.07,86.031c-5.721-10.425-16.318-17.786-28.725-19.015c0.857-3.344,1.315-6.85,1.315-10.462
	c0-23.169-18.779-41.947-41.948-41.947c-20.259,0-37.16,14.36-41.087,33.455c-3.023-0.802-6.193-1.231-9.472-1.231
	c-5.06,0-9.88,1.019-14.271,2.859c-6.535-10.392-18.102-17.302-31.288-17.302c-20.405,0-36.945,16.54-36.945,36.945
	c0,1.563,0.106,3.104,0.296,4.615c-0.101,0-0.196-0.015-0.296-0.015c-11.916,0-22.168,6.998-26.955,17.09
	c-0.951-0.09-1.914-0.146-2.891-0.146c-16.483,0-29.847,13.364-29.847,29.847c0,16.481,13.363,29.846,29.847,29.846
	c4.467,0,8.688-1.01,12.49-2.769c5.396,7.712,14.33,12.771,24.457,12.771c4.467,0,8.686-1.01,12.489-2.77
	c5.399,7.713,14.33,12.768,24.457,12.768c10.669,0,20.006-5.615,25.283-14.034c6.417,11.047,18.369,18.479,32.063,18.479
	c14.673,0,27.351-8.526,33.357-20.894c6.798,8.34,17.149,13.671,28.747,13.671c11.468,0,21.716-5.21,28.515-13.388
	c2.74,0.694,5.598,1.104,8.552,1.104c19.215,0,34.786-15.573,34.786-34.784C303.001,102.139,288.416,87.001,270.07,86.031z"/>
<path fill="#FFFFFF" d="M266.439,82.031c-5.721-10.425-16.318-17.786-28.725-19.015c0.857-3.344,1.315-6.85,1.315-10.462
	c0-23.169-18.779-41.947-41.948-41.947c-20.259,0-37.16,14.36-41.087,33.455c-3.023-0.802-6.193-1.231-9.472-1.231
	c-5.06,0-9.88,1.019-14.271,2.859c-6.535-10.392-18.102-17.302-31.288-17.302c-20.405,0-36.945,16.54-36.945,36.945
	c0,1.563,0.106,3.104,0.296,4.615c-0.101,0-0.196-0.015-0.296-0.015c-11.916,0-22.168,6.998-26.955,17.091
	c-0.951-0.091-1.914-0.146-2.891-0.146c-16.483,0-29.847,13.364-29.847,29.847c0,16.481,13.363,29.846,29.847,29.846
	c4.467,0,8.688-1.01,12.49-2.769c5.396,7.712,14.33,12.771,24.457,12.771c4.467,0,8.686-1.01,12.489-2.77
	c5.399,7.713,14.33,12.768,24.457,12.768c10.669,0,20.006-5.615,25.283-14.034c6.417,11.047,18.369,18.479,32.063,18.479
	c14.673,0,27.351-8.526,33.357-20.894c6.798,8.34,17.149,13.671,28.747,13.671c11.468,0,21.716-5.21,28.515-13.388
	c2.74,0.694,5.598,1.104,8.552,1.104c19.215,0,34.786-15.573,34.786-34.784C299.37,98.139,284.785,83.001,266.439,82.031z"/>
</svg>
