<?xml version="1.0" encoding="utf-8"?>
<!-- Generator: Adobe Illustrator 16.0.0, SVG Export Plug-In . SVG Version: 6.00 Build 0)  -->
<!DOCTYPE svg PUBLIC "-//W3C//DTD SVG 1.1//EN" "http://www.w3.org/Graphics/SVG/1.1/DTD/svg11.dtd">
<svg version="1.1" id="Layer_1" xmlns="http://www.w3.org/2000/svg" xmlns:xlink="http://www.w3.org/1999/xlink" x="0px" y="0px"
	 width="274px" height="180px" viewBox="0 0 274 180" enable-background="new 0 0 274 180" xml:space="preserve">
<g>
	<defs>
		<filter id="Adobe_OpacityMaskFilter" filterUnits="userSpaceOnUse" x="10.614" y="11.131" width="260.386" height="165.869">
			<feFlood  style="flood-color:white;flood-opacity:1" result="back"/>
			<feBlend  in="SourceGraphic" in2="back" mode="normal"/>
		</filter>
	</defs>
	<mask maskUnits="userSpaceOnUse" x="10.614" y="11.131" width="260.386" height="165.869" id="SVGID_1_">
		<g filter="url(#Adobe_OpacityMaskFilter)">
			<image overflow="visible" width="265" height="171" xlink:href="6C5B2152.jpg"  transform="matrix(1 0 0 1 8.5 8.5)">
			</image>
		</g>
	</mask>
	<g mask="url(#SVGID_1_)">
		<path fill="#DDDDDD" d="M239.087,82.482c0-0.041,0.003-0.084,0.003-0.123c0-18.683-15.145-33.824-33.824-33.824
			c-1.326,0-2.631,0.086-3.914,0.232c-2.121-21.138-19.963-37.637-41.656-37.637c-15.373,0-28.803,8.292-36.082,20.643
			c-6.772-7.504-16.576-12.22-27.48-12.22c-19.782,0-35.938,15.519-36.962,35.044C46.9,62.006,38.695,75.465,38.695,90.844
			c0,0.055,0.004,0.106,0.004,0.16c-15.774,1.598-28.085,14.916-28.085,31.113c0,17.27,14.002,31.271,31.273,31.271
			c5.891,0,11.401-1.632,16.105-4.466c5.613,10.373,16.586,17.417,29.208,17.417c6.174,0,11.949-1.69,16.9-4.628
			c9.86,9.463,23.238,15.289,37.984,15.289c14.747,0,28.123-5.826,37.982-15.289c4.953,2.938,10.729,4.628,16.901,4.628
			c12.144,0,22.759-6.524,28.541-16.255c3.392,1.105,7.013,1.713,10.771,1.713c19.176,0,34.721-15.545,34.721-34.72
			C271,98.852,256.947,83.914,239.087,82.482z"/>
	</g>
</g>
<path fill="#FFFFFF" d="M233.79,78.48c0-0.041,0.003-0.083,0.003-0.122c0-18.683-15.145-33.825-33.824-33.825
	c-1.326,0-2.631,0.086-3.914,0.232c-2.121-21.137-19.963-37.636-41.656-37.636c-15.373,0-28.803,8.292-36.083,20.643
	c-6.772-7.504-16.576-12.22-27.48-12.22c-19.782,0-35.938,15.519-36.962,35.044c-12.271,7.408-20.476,20.867-20.476,36.246
	c0,0.055,0.004,0.106,0.004,0.16C17.628,88.6,5.317,101.918,5.317,118.115c0,17.27,14.002,31.271,31.273,31.271
	c5.891,0,11.401-1.632,16.105-4.466c5.613,10.373,16.586,17.417,29.207,17.417c6.174,0,11.949-1.69,16.901-4.628
	c9.86,9.463,23.238,15.289,37.984,15.289c14.747,0,28.123-5.826,37.982-15.289c4.953,2.938,10.729,4.628,16.901,4.628
	c12.144,0,22.759-6.524,28.541-16.255c3.392,1.105,7.013,1.713,10.771,1.713c19.176,0,34.721-15.545,34.721-34.72
	C265.703,94.85,251.65,79.912,233.79,78.48z"/>
</svg>
