<?xml version="1.0" encoding="utf-8"?>
<!-- Generator: Adobe Illustrator 16.0.0, SVG Export Plug-In . SVG Version: 6.00 Build 0)  -->
<!DOCTYPE svg PUBLIC "-//W3C//DTD SVG 1.1//EN" "http://www.w3.org/Graphics/SVG/1.1/DTD/svg11.dtd">
<svg version="1.1" id="Layer_1" xmlns="http://www.w3.org/2000/svg" xmlns:xlink="http://www.w3.org/1999/xlink" x="0px" y="0px"
	 width="1631px" height="100px" viewBox="0 0 1631 100" enable-background="new 0 0 1631 100" xml:space="preserve">
<path fill="#F3F3F3" d="M138.586,63.003c2.661-3.424,4.26-7.711,4.26-12.383c0-11.166-9.052-20.216-20.218-20.216
	c-3.106,0-6.038,0.72-8.669,1.973c-0.585-14.237-12.28-25.61-26.662-25.61c-13.157,0-24.067,9.518-26.285,22.036
	c-2.01-0.67-4.158-1.049-6.396-1.049c-10.421,0-18.996,7.89-20.093,18.02c-2.168-0.843-4.518-1.323-6.982-1.323
	c-10.657,0-19.298,8.639-19.298,19.298c0,0.778,0.06,1.544,0.15,2.299C-0.887,69.624-7.479,78.602-7.479,89.14
	c0,13.68,11.088,24.769,24.768,24.769c4.639,0,8.965-1.301,12.68-3.521c3.537,4.075,8.743,6.666,14.564,6.666
	c5.517,0,10.479-2.329,13.998-6.041c4.541,5.507,11.418,9.018,19.115,9.018c8.975,0,16.813-4.791,21.156-11.941
	c1.171,0.224,2.374,0.35,3.61,0.35c3.913,0,7.549-1.172,10.59-3.175c4.019,2.813,8.898,4.477,14.176,4.477
	c13.678,0,24.767-11.088,24.767-24.769C151.944,75.41,146.519,67.132,138.586,63.003z"/>
<path fill="#F3F3F3" d="M280.206,78.916c0-9.479-7.271-17.246-16.538-18.057c-4.594-11.426-15.771-19.496-28.841-19.496
	c-0.954,0-1.894,0.051-2.825,0.135c-6.649-8.254-16.832-13.537-28.256-13.537c-10.536,0-20.02,4.496-26.646,11.67
	c-3.055-0.895-6.283-1.383-9.627-1.383c-18.887,0-34.197,15.311-34.197,34.195c0,9.346,3.753,17.813,9.828,23.984
	c-0.142,1.068-0.24,2.15-0.24,3.258c0,13.592,11.018,24.609,24.609,24.609c4.648,0,8.982-1.313,12.691-3.555
	c5.698,6.639,14.146,10.85,23.582,10.85c7.5,0,14.378-2.656,19.748-7.08c4.787,3.014,10.451,4.762,16.526,4.762
	c17.166,0,31.081-13.914,31.081-31.08c0-1.164-0.07-2.313-0.195-3.443C276.452,91.645,280.206,85.723,280.206,78.916z"/>
<path fill="#F3F3F3" d="M904.755,51.584c0-19.719-15.985-35.701-35.701-35.701c-13.919,0-25.947,7.983-31.835,19.605
	c-3.699-1.297-7.658-2.038-11.8-2.038c-13.395,0-25.054,7.389-31.162,18.305c-18.122,1.71-32.305,16.958-32.305,35.529
	c0,19.716,15.985,35.7,35.7,35.7c7.845,0,15.076-2.562,20.967-6.851c5.893,4.289,13.124,6.851,20.968,6.851
	c5.26,0,10.237-1.166,14.732-3.209c4.498,2.043,9.475,3.209,14.734,3.209c6.511,0,12.594-1.771,17.851-4.815
	c5.257,3.044,11.341,4.815,17.851,4.815c19.716,0,35.701-15.984,35.701-35.7C940.456,67.567,924.471,51.584,904.755,51.584z"/>
<path fill="#F3F3F3" d="M1471.935,61.598c-0.253,0-0.498,0.031-0.747,0.037c-3.684-15.904-17.929-27.763-34.954-27.763
	c-3.703,0-7.273,0.562-10.635,1.602c-2.546-13.324-14.246-23.401-28.314-23.401c-15.931,0-28.844,12.914-28.844,28.845
	c-21.144,0-38.282,17.14-38.282,38.282c0,21.144,17.139,38.283,38.282,38.283c3.957,0,7.772-0.6,11.363-1.716
	c6.474,8.704,16.835,14.345,28.515,14.345c11.253,0,21.277-5.242,27.785-13.409c2.458,0.702,5.043,1.103,7.728,1.103
	c5.126,0,9.915-1.395,14.051-3.791c4.138,2.396,8.928,3.791,14.053,3.791c15.519,0,28.103-12.582,28.103-28.104
	S1487.453,61.598,1471.935,61.598z"/>
<path fill="#F3F3F3" d="M753.444,52.086c-4.115-14.345-17.304-24.852-32.971-24.852c-1.81,0-3.573,0.182-5.307,0.451
	C710.725,15.967,699.424,7.62,686.148,7.62c-16.738,0-30.347,13.253-30.994,29.832c-3.157-0.8-6.463-1.228-9.868-1.228
	c-22.118,0-40.047,17.929-40.047,40.046c0,22.118,17.929,40.046,40.047,40.046c4.741,0,9.291-0.83,13.513-2.343
	c1.768,1.463,4.035,2.343,6.509,2.343c2.862,0,5.445-1.18,7.301-3.074c5.427,3.736,11.995,5.934,19.082,5.934
	c7.688,0,14.751-2.602,20.422-6.934c3.101,2.055,6.815,3.258,10.813,3.258c4.243,0,8.16-1.361,11.368-3.65
	c4.422,2.32,9.445,3.65,14.784,3.65c17.604,0,31.874-14.271,31.874-31.873C780.952,67.508,768.977,54.22,753.444,52.086z"/>
<path fill="#F3F3F3" d="M938.662,116.859h157.418c2.688-4.866,4.227-10.457,4.227-16.41c0-18.779-15.22-34.003-34-34.003
	c-0.877,0-1.739,0.068-2.6,0.132c-5.146-12.45-17.398-21.212-31.709-21.212c-0.246,0-0.483,0.032-0.729,0.035
	c-7.503-13.925-22.214-23.392-39.142-23.392c-24.078,0-43.667,19.152-44.403,43.048c-11.09,4.935-18.832,16.028-18.832,28.95
	C928.892,102.995,932.651,111.093,938.662,116.859z"/>
<path fill="#F3F3F3" d="M1505.832,113.673h87.187c6.387-4.932,10.504-12.66,10.504-21.354c0-14.896-12.076-26.973-26.973-26.973
	c-1.734,0-3.428,0.172-5.071,0.484c-3.825-11.588-14.734-19.953-27.603-19.953c-12.951,0-23.918,8.471-27.679,20.172
	c-11.955,2.766-20.869,13.473-20.869,26.27C1495.328,101.013,1499.446,108.741,1505.832,113.673L1505.832,113.673z"/>
<path fill="#F3F3F3" d="M276.516,114.679h199.877c0.365-0.484,0.738-0.963,1.086-1.461c0.992,0.522,2.008,1.004,3.039,1.461h136.59
	c1.962-5.793,3.044-11.993,3.044-18.45c0-31.732-25.725-57.458-57.457-57.458c-7.009,0-13.723,1.259-19.932,3.557
	c-8.854-13.88-24.375-23.093-42.058-23.093c-16.563,0-31.231,8.083-40.3,20.51c-7.296-4.05-15.688-6.364-24.624-6.364
	c-2.64,0-5.234,0.202-7.767,0.591c-8.578-13.181-23.431-21.9-40.328-21.9c-20.311,0-37.667,12.597-44.72,30.398
	c-8.974-9.542-21.705-15.508-35.838-15.508c-27.176,0-49.207,22.031-49.207,49.208C257.922,91.771,265.189,105.664,276.516,114.679z
	"/>
<path fill="#F3F3F3" d="M1373.135,102.326c0.629-2.271,0.973-4.662,0.973-7.135c0-11.4-7.152-21.125-17.213-24.945
	c-2.907-11.586-13.389-20.166-25.876-20.166c-12.101,0-22.313,8.057-25.581,19.098c-1.904-0.432-3.884-0.668-5.919-0.668
	c-3.415,0-6.677,0.648-9.678,1.818c-4.184-9.264-13.497-15.717-24.322-15.717c-10.729,0-19.974,6.338-24.211,15.471
	c-3.992-2.381-8.657-3.752-13.643-3.752c-5.657,0-10.898,1.764-15.215,4.768c-4.202-9.221-13.491-15.635-24.285-15.635
	c-3.855,0-7.517,0.824-10.826,2.297c-8.323-15.158-24.433-25.434-42.946-25.434c-27.044,0-48.967,21.924-48.967,48.967
	c0,7.529,1.703,14.66,4.739,21.033H1373.135z"/>
<path fill="#F3F3F3" d="M1688.193,63.387c-2.073-11.904-12.433-20.962-24.93-20.962c-1.01,0-2,0.075-2.979,0.189
	c-4.265-7.984-12.671-13.421-22.355-13.421c-9.995,0-18.613,5.804-22.736,14.214c-10.619,3.014-18.409,12.763-18.409,24.35
	c0,0.264,0.031,0.52,0.04,0.781c-9.36,4.221-15.892,13.614-15.892,24.552c0,14.877,12.063,26.938,26.939,26.938
	c5.02,0,9.703-1.398,13.729-3.792c4.556,8.41,13.459,14.121,23.695,14.121c11.475,0,21.25-7.188,25.13-17.298
	c4.062,2.455,8.808,3.895,13.902,3.895c14.877,0,26.936-12.061,26.936-26.938C1711.265,76.454,1701.235,65.266,1688.193,63.387z"/>
</svg>
