<?xml version="1.0" encoding="utf-8"?>
<!-- Generator: Adobe Illustrator 16.0.0, SVG Export Plug-In . SVG Version: 6.00 Build 0)  -->
<!DOCTYPE svg PUBLIC "-//W3C//DTD SVG 1.1//EN" "http://www.w3.org/Graphics/SVG/1.1/DTD/svg11.dtd">
<svg version="1.1" id="Layer_1" xmlns="http://www.w3.org/2000/svg" xmlns:xlink="http://www.w3.org/1999/xlink" x="0px" y="0px"
	 width="259px" height="180px" viewBox="0 0 259 180" enable-background="new 0 0 259 180" xml:space="preserve">
<path fill="#DDDDDD" d="M213.312,79.839c-0.358,0-0.708,0.044-1.062,0.053c-5.243-22.637-25.52-39.517-49.755-39.517
	c-5.27,0-10.353,0.799-15.138,2.279c-3.622-18.965-20.275-33.31-40.3-33.31c-22.676,0-41.056,18.381-41.056,41.058
	c-30.095,0-54.491,24.396-54.491,54.49c0,30.095,24.396,54.492,54.491,54.492c5.633,0,11.063-0.854,16.175-2.443
	c9.214,12.39,23.962,20.419,40.588,20.419c16.017,0,30.285-7.461,39.547-19.088c3.499,1,7.178,1.569,11,1.569
	c7.296,0,14.113-1.983,19.999-5.396c5.891,3.412,12.709,5.396,20.003,5.396c22.09,0,40.001-17.908,40.001-40.001
	C253.313,97.747,235.402,79.839,213.312,79.839z"/>
<path fill="#FFFFFF" d="M208.801,75.495c-0.358,0-0.707,0.044-1.061,0.052c-5.244-22.637-25.521-39.517-49.756-39.517
	c-5.269,0-10.352,0.799-15.137,2.278C139.226,19.344,122.571,5,102.547,5C79.871,5,61.491,23.381,61.491,46.058
	C31.396,46.058,7,70.454,7,100.548c0,30.095,24.396,54.491,54.491,54.491c5.633,0,11.063-0.854,16.175-2.442
	c9.213,12.39,23.962,20.419,40.588,20.419c16.017,0,30.285-7.461,39.547-19.088c3.5,1,7.179,1.569,11,1.569
	c7.297,0,14.113-1.983,20-5.396c5.89,3.412,12.708,5.396,20.002,5.396c22.09,0,40.001-17.908,40.001-40.001
	C248.803,93.403,230.892,75.495,208.801,75.495z"/>
</svg>
