<?xml version="1.0" encoding="utf-8"?>
<!-- Generator: Adobe Illustrator 16.0.0, SVG Export Plug-In . SVG Version: 6.00 Build 0)  -->
<!DOCTYPE svg PUBLIC "-//W3C//DTD SVG 1.1//EN" "http://www.w3.org/Graphics/SVG/1.1/DTD/svg11.dtd">
<svg version="1.1" id="Layer_1" xmlns="http://www.w3.org/2000/svg" xmlns:xlink="http://www.w3.org/1999/xlink" x="0px" y="0px"
	 width="152px" height="108px" viewBox="0 0 152 108" enable-background="new 0 0 152 108" xml:space="preserve">
<path fill="#DDDDDD" d="M151,56.812c0-9.211-7.066-16.76-16.072-17.546c-4.465-11.104-15.326-18.947-28.028-18.947
	c-0.927,0-1.84,0.05-2.745,0.131c-6.462-8.021-16.357-13.157-27.46-13.157c-10.238,0-19.455,4.37-25.895,11.341
	c-2.969-0.869-6.106-1.344-9.356-1.344c-18.354,0-33.232,14.879-33.232,33.231c0,9.083,3.647,17.311,9.551,23.309
	c-0.138,1.037-0.233,2.089-0.233,3.166c0,13.209,10.708,23.915,23.915,23.915c4.517,0,8.729-1.277,12.334-3.455
	C59.315,103.908,67.525,108,76.694,108c7.289,0,13.974-2.58,19.191-6.88c4.652,2.929,10.157,4.628,16.061,4.628
	c16.683,0,30.205-13.522,30.205-30.204c0-1.131-0.068-2.248-0.189-3.347C147.352,69.182,151,63.427,151,56.812z"/>
<path fill="#FFFFFF" d="M146.599,54.391c0-9.211-7.066-16.76-16.073-17.546c-4.464-11.104-15.325-18.947-28.027-18.947
	c-0.928,0-1.84,0.049-2.746,0.131C93.29,10.007,83.395,4.872,72.293,4.872c-10.239,0-19.455,4.369-25.895,11.341
	c-2.968-0.869-6.105-1.344-9.355-1.344C18.688,14.869,3.81,29.749,3.81,48.1c0,9.083,3.647,17.311,9.551,23.309
	c-0.138,1.037-0.233,2.089-0.233,3.166c0,13.208,10.707,23.914,23.915,23.914c4.517,0,8.729-1.276,12.333-3.454
	c5.537,6.451,13.748,10.544,22.917,10.544c7.289,0,13.974-2.58,19.191-6.88c4.652,2.929,10.156,4.628,16.061,4.628
	c16.682,0,30.205-13.522,30.205-30.204c0-1.132-0.068-2.248-0.19-3.347C142.949,66.761,146.599,61.006,146.599,54.391z"/>
</svg>
